<?xml version="1.0" encoding="UTF-8" standalone="no"?>
<!-- Created with Inkscape (http://www.inkscape.org/) -->

<svg
   xmlns:dc="http://purl.org/dc/elements/1.1/"
   xmlns:cc="http://creativecommons.org/ns#"
   xmlns:rdf="http://www.w3.org/1999/02/22-rdf-syntax-ns#"
   xmlns:svg="http://www.w3.org/2000/svg"
   xmlns="http://www.w3.org/2000/svg"
   xmlns:sodipodi="http://sodipodi.sourceforge.net/DTD/sodipodi-0.dtd"
   xmlns:inkscape="http://www.inkscape.org/namespaces/inkscape"
   width="720"
   height="80"
   id="svg2"
   version="1.1"
   inkscape:version="0.48.3.1 r9886"
   inkscape:export-filename="/var/www/game_2D_dev/images/character.png"
   inkscape:export-xdpi="90"
   inkscape:export-ydpi="90"
   sodipodi:docname="inkscaped_sprite.svg">
  <defs
     id="defs4" />
  <sodipodi:namedview
     id="base"
     pagecolor="#ffffff"
     bordercolor="#00cc19"
     borderopacity="1"
     inkscape:pageopacity="0.0"
     inkscape:pageshadow="2"
     inkscape:zoom="2.1486111"
     inkscape:cx="360"
     inkscape:cy="40"
     inkscape:document-units="px"
     inkscape:current-layer="layer2"
     showgrid="true"
     fit-margin-top="0"
     fit-margin-left="0"
     fit-margin-right="0"
     fit-margin-bottom="0"
     inkscape:showpageshadow="true"
     borderlayer="true"
     inkscape:snap-grids="false"
     inkscape:window-width="1680"
     inkscape:window-height="1001"
     inkscape:window-x="0"
     inkscape:window-y="25"
     inkscape:window-maximized="1"
     showguides="true"
     inkscape:guide-bbox="true"
     inkscape:snap-to-guides="false">
    <inkscape:grid
       type="xygrid"
       id="grid3066"
       empspacing="4"
       dotted="false"
       visible="true"
       enabled="true"
       snapvisiblegridlinesonly="true"
       spacingx="5px"
       spacingy="5px" />
    <inkscape:grid
       type="xygrid"
       id="grid3068"
       empspacing="1"
       dotted="false"
       visible="true"
       enabled="true"
       snapvisiblegridlinesonly="true"
       color="#ff5480"
       opacity="1"
       empcolor="#faa243"
       empopacity="0.99215686"
       spacingx="80px"
       spacingy="80px" />
    <sodipodi:guide
       orientation="1,0"
       position="-4.1887524,33.044602"
       id="guide4198" />
    <sodipodi:guide
       orientation="1,0"
       position="13.031674,28.390433"
       id="guide4200" />
    <sodipodi:guide
       orientation="0,1"
       position="76.613272,46.681922"
       id="guide4202" />
    <sodipodi:guide
       orientation="0,1"
       position="71.670481,57.665904"
       id="guide4204" />
  </sodipodi:namedview>
  <metadata
     id="metadata7">
    <rdf:RDF>
      <cc:Work
         rdf:about="">
        <dc:format>image/svg+xml</dc:format>
        <dc:type
           rdf:resource="http://purl.org/dc/dcmitype/StillImage" />
        <dc:title />
      </cc:Work>
    </rdf:RDF>
  </metadata>
  <g
     inkscape:groupmode="layer"
     id="layer2"
     inkscape:label="Layer"
     style="display:inline"
     transform="translate(0,-20)">
    <path
       style="fill:#cccccc;stroke:#000000;stroke-width:1px;stroke-linecap:round;stroke-linejoin:round;stroke-opacity:1;display:inline"
       d="m 107.40139,66.289976 c 0.65703,-2.284425 3.90494,-3.296884 6.2806,-3.377326 1.32784,-0.04496 2.66113,0.736909 3.6301,1.645912 1.33361,1.251071 2.55325,3.013068 2.57949,4.841454 0.0154,1.073361 -0.70752,2.092443 -1.43214,2.884439 -0.94709,1.035157 -2.19726,2.022293 -3.58916,2.198801 -1.17587,0.149105 -2.47474,-0.300834 -3.39977,-1.041921 -2.14048,-1.714806 -4.82719,-4.515557 -4.06908,-7.151379 z"
       id="path4208"
       inkscape:connector-curvature="0"
       sodipodi:nodetypes="ssssssss" />
    <path
       sodipodi:nodetypes="ssssssss"
       inkscape:connector-curvature="0"
       id="path4206"
       d="m 183.40139,66.289976 c 0.65703,-2.284425 3.90494,-3.296884 6.2806,-3.377326 1.32784,-0.04496 2.66113,0.736909 3.6301,1.645912 1.33361,1.251071 2.55325,3.013068 2.57949,4.841454 0.0154,1.073361 -0.70752,2.092443 -1.43214,2.884439 -0.94709,1.035157 -2.19726,2.022293 -3.58916,2.198801 -1.17587,0.149105 -2.47474,-0.300834 -3.39977,-1.041921 -2.14048,-1.714806 -4.82719,-4.515557 -4.06908,-7.151379 z"
       style="fill:#cccccc;stroke:#000000;stroke-width:1px;stroke-linecap:round;stroke-linejoin:round;stroke-opacity:1;display:inline" />
    <path
       sodipodi:nodetypes="ccccc"
       inkscape:connector-curvature="0"
       id="path3932"
       d="m 683.31656,63.653574 -1.92704,28.966234 -6.02889,-0.579868 4.59792,-28.685489 z"
       style="fill:#1a1a1a;stroke:#000000;stroke-width:1px;stroke-linecap:butt;stroke-linejoin:miter;stroke-opacity:1" />
    <path
       sodipodi:nodetypes="csccc"
       inkscape:connector-curvature="0"
       id="path3934"
       d="m 674.29485,84.640146 c -0.78474,-0.173442 -11.21942,3.731228 -9.11007,5.856979 5.01773,5.056746 23.76267,9.848775 23.76267,9.848775 6.58669,-10.243654 -2.99408,-11.393048 -8.47118,-12.553727 z"
       style="fill:#4d4d4d;stroke:#000000;stroke-width:0.86647373px;stroke-linecap:butt;stroke-linejoin:miter;stroke-opacity:1" />
    <path
       sodipodi:nodetypes="sssss"
       inkscape:connector-curvature="0"
       id="path3936"
       d="m 677.45742,83.680164 c -1.25095,-0.372922 -3.54484,1.733788 -1.70724,2.099772 1.91693,0.381784 5.21624,3.18525 6.43989,3.156845 2.22936,-0.05175 0.79757,-1.941143 1.05316,-2.285099 1.40405,-1.889225 -5.47229,-2.878056 -5.7858,-2.971514 z"
       style="fill:#ececec;stroke:#000000;stroke-width:1px;stroke-linecap:butt;stroke-linejoin:miter;stroke-opacity:1" />
    <path
       sodipodi:nodetypes="ssssssss"
       inkscape:connector-curvature="0"
       id="path3928"
       d="m 679.7774,64.996568 c -1.67938,1.682245 -0.9901,5.013745 0.0914,7.130489 0.60449,1.183121 1.93476,1.970106 3.19958,2.376829 1.74079,0.559782 3.87317,0.772153 5.48499,-0.09142 0.94622,-0.506959 1.48699,-1.633327 1.82833,-2.651079 0.44614,-1.330222 0.70333,-2.902236 0.18283,-4.20516 -0.43972,-1.100704 -1.463,-2.018531 -2.55966,-2.468246 -2.53758,-1.040608 -6.28977,-2.032421 -8.22747,-0.09141 z"
       style="fill:#cccccc;stroke:#000000;stroke-width:1px;stroke-linecap:round;stroke-linejoin:round;stroke-opacity:1" />
    <path
       style="fill:#1a1a1a;stroke:#000000;stroke-width:1px;stroke-linecap:butt;stroke-linejoin:miter;stroke-opacity:1"
       d="M 685.28206,65.410308 675.08147,92.589423 669.47612,90.29514 682.15307,64.155265 z"
       id="path3130"
       inkscape:connector-curvature="0"
       sodipodi:nodetypes="ccccc" />
    <path
       style="fill:#1a1a1a;stroke:#000000;stroke-width:1px;stroke-linecap:butt;stroke-linejoin:miter;stroke-opacity:1"
       d="m 679.24804,58.760195 c -4.42416,0.950408 -9.06217,5.187008 -9.50732,9.690151 -0.36168,3.658707 2.71755,7.645144 6.03349,9.233068 3.0656,1.468044 7.43016,1.036613 10.14724,-1.005582 1.96765,-1.478911 2.79356,-4.395304 2.74249,-6.856238 -0.0679,-3.272751 -1.65018,-6.703073 -4.02233,-8.95882 -1.39834,-1.329717 -3.50698,-2.507861 -5.39357,-2.102579 z"
       id="path3138"
       inkscape:connector-curvature="0"
       sodipodi:nodetypes="sssssss" />
    <path
       style="fill:#1a1a1a;stroke:#000000;stroke-width:1px;stroke-linecap:butt;stroke-linejoin:miter;stroke-opacity:1"
       d="m 695.49957,39.288476 c -2.70061,-5.822857 -19.75777,-15.526047 -26.13278,-16.273255 -6.09108,-0.71393 -4.4927,12.185901 -4.85742,12.159511 -0.50253,-0.03636 -5.26186,10.791165 -2.37683,16.454974 2.37957,4.671491 7.86136,7.377669 12.79831,9.141652 3.91113,1.397451 8.47444,2.080641 12.43265,0.822749 3.36538,-1.069492 6.71787,-3.481138 8.22749,-6.673406 2.22768,-4.710651 2.10102,-10.905069 -0.0914,-15.632225 z"
       id="path3134"
       inkscape:connector-curvature="0"
       sodipodi:nodetypes="csssssssc" />
    <path
       style="fill:#4d4d4d;stroke:#000000;stroke-width:0.86647373px;stroke-linecap:butt;stroke-linejoin:miter;stroke-opacity:1"
       d="m 668.21899,91.150864 c -0.79209,0.136001 -6.28024,5.871475 -6.22086,8.865576 7.12355,0.0573 25.72244,0.13765 25.72244,0.13765 2.22676,-11.973245 -7.07782,-9.416513 -12.58736,-8.421134 z"
       id="path3126"
       inkscape:connector-curvature="0"
       sodipodi:nodetypes="ccccc" />
    <path
       style="fill:#ececec;stroke:#000000;stroke-width:1px;stroke-linecap:butt;stroke-linejoin:miter;stroke-opacity:1"
       d="m 669.89876,88.215383 c -1.29299,0.179218 -2.50715,3.047325 -0.68317,2.618594 1.90273,-0.447243 6.06737,0.736235 7.16915,0.203113 2.00732,-0.971291 -0.0789,-2.097124 0.0111,-2.516088 0.49453,-2.301294 -6.17303,-0.350535 -6.49707,-0.305619 z"
       id="path3128"
       inkscape:connector-curvature="0"
       sodipodi:nodetypes="sssss" />
    <path
       style="fill:#ffffff;stroke:#000000;stroke-width:1px;stroke-linecap:round;stroke-linejoin:round;stroke-opacity:1"
       d="m 669.05127,64.246678 c -1.67938,1.682245 -0.9901,5.013745 0.0914,7.130489 0.60449,1.183121 1.93476,1.970106 3.19958,2.376829 1.74079,0.559782 3.87317,0.772153 5.48499,-0.09142 0.94622,-0.506959 1.48699,-1.633327 1.82833,-2.651079 0.44614,-1.330222 0.70333,-2.902236 0.18283,-4.20516 -0.43972,-1.100704 -1.463,-2.018531 -2.55966,-2.468246 -2.53758,-1.040608 -6.28977,-2.032421 -8.22747,-0.09141 z"
       id="path3132"
       inkscape:connector-curvature="0"
       sodipodi:nodetypes="ssssssss" />
    <path
       style="fill:#ffffff;stroke:#000000;stroke-width:1px;stroke-linecap:butt;stroke-linejoin:miter;stroke-opacity:1"
       d="m 683.61543,42.762304 c -1.01553,0.490729 -1.74871,1.580148 -2.10258,2.651079 -0.59306,1.794811 -0.61733,3.955278 0.18283,5.667824 0.48419,1.036287 1.50339,1.846522 2.55966,2.285413 1.91681,0.796453 4.37206,1.318131 6.21632,0.365666 1.02169,-0.52765 1.56588,-1.805785 1.82834,-2.925329 0.42632,-1.818469 0.43425,-3.988079 -0.5485,-5.576407 -0.81407,-1.315713 -2.44412,-2.040159 -3.93091,-2.468246 -1.347,-0.387836 -2.94307,-0.609873 -4.20516,0 z"
       id="path3136"
       inkscape:connector-curvature="0"
       sodipodi:nodetypes="sssssssss" />
    <path
       sodipodi:nodetypes="cssssssssc"
       inkscape:connector-curvature="0"
       id="path3154"
       d="m 695.35094,43.725426 c 0.19619,0.368083 0.33783,1.185227 0.40618,1.988504 0.11451,1.34624 0.11926,2.966749 -0.0353,4.251284 -0.0936,0.777291 -0.29043,1.385027 -0.49449,1.714227 -0.37028,0.597398 -0.8446,0.988695 -1.20087,0.274277 -0.19738,-0.395777 -0.30251,-1.354472 -0.35321,-2.194212 -0.0824,-1.363985 -0.0839,-2.991352 0.10602,-4.182714 0.15732,-0.986882 0.47215,-1.530269 0.75937,-1.851366 0.26022,-0.290905 0.56854,-0.45745 0.81236,0 z"
       style="fill:#ffffff;stroke:#000000;stroke-width:0.80000001;stroke-linecap:butt;stroke-linejoin:miter;stroke-miterlimit:4;stroke-opacity:1;stroke-dasharray:none" />
    <path
       sodipodi:nodetypes="ccccc"
       inkscape:connector-curvature="0"
       id="path3932-7"
       d="m 43.040923,63.261653 -1.92704,28.96623 -6.02889,-0.57987 4.59792,-28.68549 z"
       style="fill:#1a1a1a;stroke:#000000;stroke-width:1px;stroke-linecap:butt;stroke-linejoin:miter;stroke-opacity:1;display:inline" />
    <path
       sodipodi:nodetypes="ccccc"
       inkscape:connector-curvature="0"
       id="path3934-4"
       d="m 34.782303,90.371823 c -0.79209,0.136 -6.28024,5.87148 -6.22086,8.86558 7.12355,0.0573 25.72244,0.13764 25.72244,0.13764 2.22676,-11.97324 -7.07782,-9.41651 -12.58736,-8.42113 z"
       style="fill:#4d4d4d;stroke:#000000;stroke-width:0.86647373px;stroke-linecap:butt;stroke-linejoin:miter;stroke-opacity:1;display:inline" />
    <path
       sodipodi:nodetypes="sssss"
       inkscape:connector-curvature="0"
       id="path3936-9"
       d="m 35.107173,88.017013 c -1.29299,0.17922 -2.50715,3.04733 -0.68317,2.6186 1.90273,-0.44725 6.06737,0.73623 7.16915,0.20311 2.00732,-0.97129 -0.0789,-2.09712 0.0111,-2.51609 0.49453,-2.30129 -6.17303,-0.35053 -6.49707,-0.30562 z"
       style="fill:#ececec;stroke:#000000;stroke-width:1px;stroke-linecap:butt;stroke-linejoin:miter;stroke-opacity:1;display:inline" />
    <path
       sodipodi:nodetypes="ssssssss"
       inkscape:connector-curvature="0"
       id="path3928-8"
       d="m 38.093843,65.315923 c -1.67938,1.68225 -0.9901,5.01375 0.0914,7.13049 0.60449,1.18312 1.93476,1.97011 3.19958,2.37683 1.74079,0.55978 3.87317,0.77215 5.48499,-0.0914 0.94622,-0.50696 1.48699,-1.63333 1.82833,-2.65108 0.44614,-1.33022 0.70333,-2.90223 0.18283,-4.20516 -0.43972,-1.1007 -1.463,-2.01853 -2.55966,-2.46824 -2.53758,-1.04061 -6.28977,-2.03243 -8.22747,-0.0914 z"
       style="fill:#ffffff;stroke:#000000;stroke-width:1px;stroke-linecap:round;stroke-linejoin:round;stroke-opacity:1;display:inline" />
    <path
       style="fill:#1a1a1a;stroke:#000000;stroke-width:1px;stroke-linecap:butt;stroke-linejoin:miter;stroke-opacity:1;display:inline"
       d="m 41.040923,63.261653 -1.92704,28.96623 -6.02889,-0.57987 4.59792,-28.68549 z"
       id="path3130-4"
       inkscape:connector-curvature="0"
       sodipodi:nodetypes="ccccc" />
    <path
       style="fill:#1a1a1a;stroke:#000000;stroke-width:1px;stroke-linecap:butt;stroke-linejoin:miter;stroke-opacity:1;display:inline"
       d="m 38.972403,58.368273 c -4.42416,0.95041 -9.06217,5.18701 -9.50732,9.69015 -0.36168,3.65871 2.71755,7.64514 6.03349,9.23307 3.0656,1.46804 7.43016,1.03661 10.14724,-1.00559 1.96765,-1.47891 2.79356,-4.3953 2.74249,-6.85623 -0.0679,-3.27275 -1.65018,-6.70308 -4.02233,-8.95882 -1.39834,-1.32972 -3.50698,-2.50786 -5.39357,-2.10258 z"
       id="path3138-5"
       inkscape:connector-curvature="0"
       sodipodi:nodetypes="sssssss" />
    <path
       style="fill:#1a1a1a;stroke:#000000;stroke-width:1px;stroke-linecap:butt;stroke-linejoin:miter;stroke-opacity:1;display:inline"
       d="m 55.223933,38.896551 c -2.70061,-5.822857 -19.75777,-15.526047 -26.13278,-16.273255 -6.09108,-0.71393 -4.4927,12.185901 -4.85742,12.159511 -0.50253,-0.03636 -5.26186,10.791165 -2.37683,16.454974 2.37957,4.671491 7.86136,7.377672 12.79831,9.141652 3.91113,1.39745 8.47444,2.08064 12.43265,0.82275 3.36538,-1.06949 6.71787,-3.48114 8.22749,-6.673407 2.22768,-4.710651 2.10102,-10.905069 -0.0914,-15.632225 z"
       id="path3134-6"
       inkscape:connector-curvature="0"
       sodipodi:nodetypes="csssssssc" />
    <path
       style="fill:#4d4d4d;stroke:#000000;stroke-width:0.86647373px;stroke-linecap:butt;stroke-linejoin:miter;stroke-opacity:1;display:inline"
       d="m 32.782303,90.371823 c -0.79209,0.136 -9.214607,8.790483 -6.22086,8.86558 6.673032,0.16739 25.72244,0.13764 25.72244,0.13764 2.22676,-11.97324 -7.07782,-9.41651 -12.58736,-8.42113 z"
       id="path3126-9"
       inkscape:connector-curvature="0"
       sodipodi:nodetypes="csccc" />
    <path
       style="fill:#ececec;stroke:#000000;stroke-width:1px;stroke-linecap:butt;stroke-linejoin:miter;stroke-opacity:1;display:inline"
       d="m 33.107173,88.017013 c -1.29299,0.17922 -2.50715,3.04733 -0.68317,2.6186 1.90273,-0.44725 6.06737,0.73623 7.16915,0.20311 2.00732,-0.97129 -0.0789,-2.09712 0.0111,-2.51609 0.49453,-2.30129 -6.17303,-0.35053 -6.49707,-0.30562 z"
       id="path3128-7"
       inkscape:connector-curvature="0"
       sodipodi:nodetypes="sssss" />
    <path
       style="fill:#ffffff;stroke:#000000;stroke-width:1px;stroke-linecap:round;stroke-linejoin:round;stroke-opacity:1;display:inline"
       d="m 30.093843,65.315923 c -1.67938,1.68225 -0.9901,5.01375 0.0914,7.13049 0.60449,1.18312 1.93476,1.97011 3.19958,2.37683 1.74079,0.55978 3.87317,0.77215 5.48499,-0.0914 0.94622,-0.50696 1.48699,-1.63333 1.82833,-2.65108 0.44614,-1.33022 0.70333,-2.90223 0.18283,-4.20516 -0.43972,-1.1007 -1.463,-2.01853 -2.55966,-2.46824 -2.53758,-1.04061 -6.28977,-2.03243 -8.22747,-0.0914 z"
       id="path3132-8"
       inkscape:connector-curvature="0"
       sodipodi:nodetypes="ssssssss" />
    <path
       style="fill:#ffffff;stroke:#000000;stroke-width:1px;stroke-linecap:butt;stroke-linejoin:miter;stroke-opacity:1;display:inline"
       d="m 43.339793,42.370379 c -1.01553,0.490729 -1.74871,1.580148 -2.10258,2.651079 -0.59306,1.794811 -0.61733,3.955278 0.18283,5.667824 0.48419,1.036287 1.50339,1.846522 2.55966,2.285413 1.91681,0.796453 4.37206,1.318131 6.21632,0.365666 1.02169,-0.52765 1.56588,-1.805785 1.82834,-2.925329 0.42632,-1.818469 0.43425,-3.988079 -0.5485,-5.576407 -0.81407,-1.315713 -2.44412,-2.040159 -3.93091,-2.468246 -1.347,-0.387836 -2.94307,-0.609873 -4.20516,0 z"
       id="path3136-5"
       inkscape:connector-curvature="0"
       sodipodi:nodetypes="sssssssss" />
    <path
       sodipodi:nodetypes="cssssssssc"
       inkscape:connector-curvature="0"
       id="path3154-7"
       d="m 55.075303,43.333501 c 0.19619,0.368083 0.33783,1.185227 0.40618,1.988504 0.11451,1.34624 0.11926,2.966749 -0.0353,4.251284 -0.0936,0.777291 -0.29043,1.385027 -0.49449,1.714227 -0.37028,0.597398 -0.8446,0.988695 -1.20087,0.274277 -0.19738,-0.395777 -0.30251,-1.354472 -0.35321,-2.194212 -0.0824,-1.363985 -0.0839,-2.991352 0.10602,-4.182714 0.15732,-0.986882 0.47215,-1.530269 0.75937,-1.851366 0.26022,-0.290905 0.56854,-0.45745 0.81236,0 z"
       style="fill:#ffffff;stroke:#000000;stroke-width:0.80000001;stroke-linecap:butt;stroke-linejoin:miter;stroke-miterlimit:4;stroke-opacity:1;stroke-dasharray:none;display:inline" />
    <path
       style="fill:#1a1a1a;stroke:#000000;stroke-width:0.7855292px;stroke-linecap:butt;stroke-linejoin:miter;stroke-opacity:1;display:inline"
       d="m 131.74504,72.540401 1.53491,10.068081 -5.09902,-3.617739 c 0.48601,-8.821207 -0.71162,-2.73203 -4.41647,-7.261127 4.31587,0.315068 4.69458,-3.329518 7.98058,0.810785 z"
       id="path3989"
       inkscape:connector-curvature="0"
       sodipodi:nodetypes="ccccc" />
    <path
       style="fill:#4d4d4d;stroke:#000000;stroke-width:0.86647373px;stroke-linecap:butt;stroke-linejoin:miter;stroke-opacity:1;display:inline"
       d="m 127.38861,80.012213 c -0.71946,-0.358156 -13.32599,0.05386 -11.07096,2.02439 4.84187,4.231002 18.72733,16.033233 20.67379,15.305461 11.40726,-4.265114 -0.14861,-11.778965 -5.18216,-14.230326 z"
       id="path3991"
       inkscape:connector-curvature="0"
       sodipodi:nodetypes="csscc" />
    <path
       style="fill:#ececec;stroke:#000000;stroke-width:1px;stroke-linecap:butt;stroke-linejoin:miter;stroke-opacity:1;display:inline"
       d="m 128.80415,79.073616 c -1.13087,-0.651986 -3.84963,0.86742 -2.1464,1.648266 1.77678,0.814551 4.33869,4.304748 5.53576,4.559969 2.18095,0.464981 1.22468,-1.704202 1.55286,-1.979768 1.80272,-1.513499 -4.65881,-4.06506 -4.94221,-4.22846 z"
       id="path3993"
       inkscape:connector-curvature="0"
       sodipodi:nodetypes="sssss" />
    <path
       style="fill:#ffffff;stroke:#000000;stroke-width:1px;stroke-linecap:round;stroke-linejoin:round;stroke-opacity:1;display:inline"
       d="m 111.38483,63.567846 c -1.67938,1.68225 -0.9901,5.01375 0.0914,7.13049 0.60449,1.18312 1.93476,1.97011 3.19958,2.37683 1.74079,0.55978 3.87317,0.77215 5.48499,-0.0914 0.94622,-0.50696 1.48699,-1.63333 1.82833,-2.65108 0.44614,-1.33022 0.70333,-2.90223 0.18283,-4.20516 -0.43972,-1.1007 -1.463,-2.01853 -2.55966,-2.46824 -2.53758,-1.04061 -6.28977,-2.03243 -8.22747,-0.0914 z"
       id="path3995"
       inkscape:connector-curvature="0"
       sodipodi:nodetypes="ssssssss" />
    <path
       sodipodi:nodetypes="ccccc"
       inkscape:connector-curvature="0"
       id="path3997"
       d="m 122.77623,65.997419 c -6.86846,6.977336 -13.933,13.84263 -19.32402,21.664218 L 99.464398,80.125334 C 107.93074,74.21509 113.42268,70.396598 120.31128,63.697479 z"
       style="fill:#1a1a1a;stroke:#000000;stroke-width:1px;stroke-linecap:butt;stroke-linejoin:miter;stroke-opacity:1;display:inline" />
    <path
       sodipodi:nodetypes="sssssss"
       inkscape:connector-curvature="0"
       id="path3999"
       d="m 118.9724,58.368273 c -4.42416,0.95041 -9.06217,5.18701 -9.50732,9.69015 -0.36168,3.65871 2.71755,7.64514 6.03349,9.23307 3.0656,1.46804 7.43016,1.03661 10.14724,-1.00559 1.96765,-1.47891 2.79356,-4.3953 2.74249,-6.85623 -0.0679,-3.27275 -1.65018,-6.70308 -4.02233,-8.95882 -1.39834,-1.32972 -3.50698,-2.50786 -5.39357,-2.10258 z"
       style="fill:#1a1a1a;stroke:#000000;stroke-width:1px;stroke-linecap:butt;stroke-linejoin:miter;stroke-opacity:1;display:inline" />
    <path
       sodipodi:nodetypes="csssssssc"
       inkscape:connector-curvature="0"
       id="path4001"
       d="m 135.22393,38.896551 c -2.70061,-5.822857 -19.75777,-15.526047 -26.13278,-16.273255 -6.09108,-0.71393 -4.4927,12.185901 -4.85742,12.159511 -0.50253,-0.03636 -5.26186,10.791165 -2.37683,16.454974 2.37957,4.671491 7.86136,7.377672 12.79831,9.141652 3.91113,1.39745 8.47444,2.08064 12.43265,0.82275 3.36538,-1.06949 6.71787,-3.48114 8.22749,-6.673407 2.22768,-4.710651 2.10102,-10.905069 -0.0914,-15.632225 z"
       style="fill:#1a1a1a;stroke:#000000;stroke-width:1px;stroke-linecap:butt;stroke-linejoin:miter;stroke-opacity:1;display:inline" />
    <path
       sodipodi:nodetypes="cssscc"
       inkscape:connector-curvature="0"
       id="path4003"
       d="m 100.80991,81.645235 c -0.72348,-0.349984 -11.018265,0.709429 -10.21642,3.594767 2.21405,7.966978 11.81119,13.546042 16.83658,14.081307 1.5903,0.169386 9.15752,0.37233 9.19084,-0.504071 0.3703,-9.739468 -6.86639,-8.790313 -10.52461,-12.677639 z"
       style="fill:#4d4d4d;stroke:#000000;stroke-width:0.86647373px;stroke-linecap:butt;stroke-linejoin:miter;stroke-opacity:1;display:inline" />
    <path
       sodipodi:nodetypes="csscc"
       inkscape:connector-curvature="0"
       id="path4005"
       d="m 99.987988,81.533958 c 1.727682,0.914078 4.087372,4.544044 5.268042,4.866792 2.15105,0.588008 1.31943,-1.63195 1.66271,-1.888447 1.88572,-1.408749 -3.4914,-5.180104 -3.77639,-5.019479 -3.04315,-1.83131 -5.549061,0.406201 -3.154362,2.041134 z"
       style="fill:#ececec;stroke:#000000;stroke-width:1px;stroke-linecap:butt;stroke-linejoin:miter;stroke-opacity:1;display:inline" />
    <path
       sodipodi:nodetypes="ssssssss"
       inkscape:connector-curvature="0"
       id="path4007"
       d="m 119.38484,64.664844 c -1.67938,1.68225 -0.9901,5.01375 0.0914,7.13049 0.60449,1.18312 1.93476,1.97011 3.19958,2.37683 1.74079,0.55978 3.87317,0.77215 5.48499,-0.0914 0.94622,-0.50696 1.48699,-1.63333 1.82833,-2.65108 0.44614,-1.33022 0.70333,-2.90223 0.18283,-4.20516 -0.43972,-1.1007 -1.463,-2.01853 -2.55966,-2.46824 -2.53758,-1.04061 -6.28977,-2.03243 -8.22747,-0.0914 z"
       style="fill:#ffffff;stroke:#000000;stroke-width:1px;stroke-linecap:round;stroke-linejoin:round;stroke-opacity:1;display:inline" />
    <path
       sodipodi:nodetypes="sssssssss"
       inkscape:connector-curvature="0"
       id="path4009"
       d="m 123.33979,42.370379 c -1.01553,0.490729 -1.74871,1.580148 -2.10258,2.651079 -0.59306,1.794811 -0.61733,3.955278 0.18283,5.667824 0.48419,1.036287 1.50339,1.846522 2.55966,2.285413 1.91681,0.796453 4.37206,1.318131 6.21632,0.365666 1.02169,-0.52765 1.56588,-1.805785 1.82834,-2.925329 0.42632,-1.818469 0.43425,-3.988079 -0.5485,-5.576407 -0.81407,-1.315713 -2.44412,-2.040159 -3.93091,-2.468246 -1.347,-0.387836 -2.94307,-0.609873 -4.20516,0 z"
       style="fill:#ffffff;stroke:#000000;stroke-width:1px;stroke-linecap:butt;stroke-linejoin:miter;stroke-opacity:1;display:inline" />
    <path
       style="fill:#ffffff;stroke:#000000;stroke-width:0.80000001;stroke-linecap:butt;stroke-linejoin:miter;stroke-miterlimit:4;stroke-opacity:1;stroke-dasharray:none;display:inline"
       d="m 135.0753,43.333501 c 0.19619,0.368083 0.33783,1.185227 0.40618,1.988504 0.11451,1.34624 0.11926,2.966749 -0.0353,4.251284 -0.0936,0.777291 -0.29043,1.385027 -0.49449,1.714227 -0.37028,0.597398 -0.8446,0.988695 -1.20087,0.274277 -0.19738,-0.395777 -0.30251,-1.354472 -0.35321,-2.194212 -0.0824,-1.363985 -0.0839,-2.991352 0.10602,-4.182714 0.15732,-0.986882 0.47215,-1.530269 0.75937,-1.851366 0.26022,-0.290905 0.56854,-0.45745 0.81236,0 z"
       id="path4011"
       inkscape:connector-curvature="0"
       sodipodi:nodetypes="cssssssssc" />
    <path
       style="fill:#1a1a1a;stroke:#000000;stroke-width:1px;stroke-linecap:butt;stroke-linejoin:miter;stroke-opacity:1;display:inline"
       d="m 204.51197,69.265228 c 8.03507,-0.291555 13.92163,2.197332 18.22891,6.729976 l -5.0738,4.557783 c -3.73682,-5.244174 -6.3327,-7.986339 -13.78051,-6.681698 z"
       id="path4035"
       inkscape:connector-curvature="0"
       sodipodi:nodetypes="ccccc" />
    <path
       style="fill:#4d4d4d;stroke:#000000;stroke-width:0.86647373px;stroke-linecap:butt;stroke-linejoin:miter;stroke-opacity:1;display:inline"
       d="m 217.92603,81.198191 c -1.72887,0.400493 -4.07033,10.232002 0.28397,9.880518 8.22994,-0.664331 20.71577,-12.313055 20.7433,-14.264963 0.14867,-10.542225 -11.14878,-3.570743 -15.12677,0.73352 z"
       id="path4037"
       inkscape:connector-curvature="0"
       sodipodi:nodetypes="csscc" />
    <path
       style="fill:#ececec;stroke:#000000;stroke-width:1px;stroke-linecap:butt;stroke-linejoin:miter;stroke-opacity:1;display:inline"
       d="m 216.85696,79.906749 c -1.02497,0.808322 -0.54024,3.403081 0.81672,2.111034 1.41553,-1.34784 6.3064,-3.830928 6.98747,-4.847921 1.24084,-1.852853 -1.49854,-1.609854 -1.63271,-2.016837 -0.73678,-2.235542 -6.74172,3.727275 -6.58285,4.013245 z"
       id="path4039"
       inkscape:connector-curvature="0"
       sodipodi:nodetypes="cssssc" />
    <path
       sodipodi:nodetypes="ccccc"
       inkscape:connector-curvature="0"
       id="path4043"
       d="m 200.92201,69.929491 c -7.59156,5.324744 -12.82841,12.33142 -23.84717,15.20816 l 1.85024,-8.873915 c 7.04568,-0.985314 12.9395,-5.155999 19.98518,-9.039528 z"
       style="fill:#1a1a1a;stroke:#000000;stroke-width:1px;stroke-linecap:butt;stroke-linejoin:miter;stroke-opacity:1;display:inline" />
    <path
       sodipodi:nodetypes="sssssss"
       inkscape:connector-curvature="0"
       id="path4045"
       d="m 198.9724,58.368273 c -4.42416,0.95041 -9.06217,5.18701 -9.50732,9.69015 -0.36168,3.65871 2.71755,7.64514 6.03349,9.23307 3.0656,1.46804 7.43016,1.03661 10.14724,-1.00559 1.96765,-1.47891 2.79356,-4.3953 2.74249,-6.85623 -0.0679,-3.27275 -1.65018,-6.70308 -4.02233,-8.95882 -1.39834,-1.32972 -3.50698,-2.50786 -5.39357,-2.10258 z"
       style="fill:#1a1a1a;stroke:#000000;stroke-width:1px;stroke-linecap:butt;stroke-linejoin:miter;stroke-opacity:1;display:inline" />
    <path
       sodipodi:nodetypes="csssssssc"
       inkscape:connector-curvature="0"
       id="path4047"
       d="m 215.22393,38.896551 c -2.70061,-5.822857 -19.75777,-15.526047 -26.13278,-16.273255 -6.09108,-0.71393 -4.4927,12.185901 -4.85742,12.159511 -0.50253,-0.03636 -5.26186,10.791165 -2.37683,16.454974 2.37957,4.671491 7.86136,7.377672 12.79831,9.141652 3.91113,1.39745 8.47444,2.08064 12.43265,0.82275 3.36538,-1.06949 6.71787,-3.48114 8.22749,-6.673407 2.22768,-4.710651 2.10102,-10.905069 -0.0914,-15.632225 z"
       style="fill:#1a1a1a;stroke:#000000;stroke-width:1px;stroke-linecap:butt;stroke-linejoin:miter;stroke-opacity:1;display:inline" />
    <path
       sodipodi:nodetypes="ccccc"
       inkscape:connector-curvature="0"
       id="path4049"
       d="m 178.22072,82.071075 c 0.13725,-0.791875 2.24905,-4.860115 -0.59188,-5.807339 -8.43907,-1.353938 -17.14972,17.510037 -14.42495,21.165211 14.56842,6.756153 14.14104,-3.11948 12.15178,-9.03832 z"
       style="fill:#4d4d4d;stroke:#000000;stroke-width:0.86647373px;stroke-linecap:butt;stroke-linejoin:miter;stroke-opacity:1;display:inline" />
    <path
       sodipodi:nodetypes="sssss"
       inkscape:connector-curvature="0"
       id="path4051"
       d="m 180.64265,77.917859 c 0.19709,-1.549612 -2.38833,-3.898335 -2.48585,-1.654123 -0.10174,2.341112 -2.54343,6.749556 -2.32103,8.195916 0.40521,2.635109 2.17528,0.603165 2.57871,0.845567 2.21581,1.331673 2.17877,-6.998997 2.22817,-7.38735 z"
       style="fill:#ececec;stroke:#000000;stroke-width:1.13150704px;stroke-linecap:butt;stroke-linejoin:miter;stroke-opacity:1;display:inline" />
    <path
       sodipodi:nodetypes="ssssssss"
       inkscape:connector-curvature="0"
       id="path4053"
       d="m 210.64463,62.3225 c -1.67938,1.68225 -0.9901,5.01375 0.0914,7.13049 0.60449,1.18312 1.93476,1.97011 3.19958,2.37683 1.74079,0.55978 3.87317,0.77215 5.48499,-0.0914 0.94622,-0.50696 1.48699,-1.63333 1.82833,-2.65108 0.44614,-1.33022 0.70333,-2.90223 0.18283,-4.20516 -0.43972,-1.1007 -1.463,-2.01853 -2.55966,-2.46824 -2.53758,-1.04061 -6.28977,-2.03243 -8.22747,-0.0914 z"
       style="fill:#ffffff;stroke:#000000;stroke-width:1px;stroke-linecap:round;stroke-linejoin:round;stroke-opacity:1;display:inline" />
    <path
       sodipodi:nodetypes="sssssssss"
       inkscape:connector-curvature="0"
       id="path4055"
       d="m 203.33979,42.370379 c -1.01553,0.490729 -1.74871,1.580148 -2.10258,2.651079 -0.59306,1.794811 -0.61733,3.955278 0.18283,5.667824 0.48419,1.036287 1.50339,1.846522 2.55966,2.285413 1.91681,0.796453 4.37206,1.318131 6.21632,0.365666 1.02169,-0.52765 1.56588,-1.805785 1.82834,-2.925329 0.42632,-1.818469 0.43425,-3.988079 -0.5485,-5.576407 -0.81407,-1.315713 -2.44412,-2.040159 -3.93091,-2.468246 -1.347,-0.387836 -2.94307,-0.609873 -4.20516,0 z"
       style="fill:#ffffff;stroke:#000000;stroke-width:1px;stroke-linecap:butt;stroke-linejoin:miter;stroke-opacity:1;display:inline" />
    <path
       style="fill:#ffffff;stroke:#000000;stroke-width:0.80000001;stroke-linecap:butt;stroke-linejoin:miter;stroke-miterlimit:4;stroke-opacity:1;stroke-dasharray:none;display:inline"
       d="m 215.0753,43.333501 c 0.19619,0.368083 0.33783,1.185227 0.40618,1.988504 0.11451,1.34624 0.11926,2.966749 -0.0353,4.251284 -0.0936,0.777291 -0.29043,1.385027 -0.49449,1.714227 -0.37028,0.597398 -0.8446,0.988695 -1.20087,0.274277 -0.19738,-0.395777 -0.30251,-1.354472 -0.35321,-2.194212 -0.0824,-1.363985 -0.0839,-2.991352 0.10602,-4.182714 0.15732,-0.986882 0.47215,-1.530269 0.75937,-1.851366 0.26022,-0.290905 0.56854,-0.45745 0.81236,0 z"
       id="path4057"
       inkscape:connector-curvature="0"
       sodipodi:nodetypes="cssssssssc" />
    <path
       style="fill:#1a1a1a;stroke:#000000;stroke-width:1px;stroke-linecap:butt;stroke-linejoin:miter;stroke-opacity:1;display:inline"
       d="m 282.08841,70.354663 c 6.02538,7.659637 12.58349,7.728123 13.35774,17.916084 l -4.9912,3.430971 c -0.7711,-10.410495 -4.42208,-9.302381 -9.89712,-17.360908 z"
       id="path4059"
       inkscape:connector-curvature="0"
       sodipodi:nodetypes="ccccc" />
    <path
       style="fill:#4d4d4d;stroke:#000000;stroke-width:0.86647373px;stroke-linecap:butt;stroke-linejoin:miter;stroke-opacity:1;display:inline"
       d="m 292.33006,89.093385 c -0.65818,0.461191 -4.80893,11.063135 -1.83978,10.672987 6.94529,-0.912615 22.64213,-8.629607 23.3185,-10.858667 3.53615,-11.653867 -10.4209,-5.49282 -14.97793,-2.24024 z"
       id="path4061"
       inkscape:connector-curvature="0"
       sodipodi:nodetypes="csscc" />
    <path
       style="fill:#ececec;stroke:#000000;stroke-width:1px;stroke-linecap:butt;stroke-linejoin:miter;stroke-opacity:1;display:inline"
       d="m 290.40318,89.810005 c -1.09287,0.713844 -0.96701,3.825821 0.4996,2.659734 1.52993,-1.216442 5.80137,-1.923321 6.57029,-2.875629 1.4009,-1.735004 -0.96626,-1.862919 -1.06366,-2.280232 -0.5348,-2.292267 -5.73233,2.317228 -6.00622,2.496122 z"
       id="path4063"
       inkscape:connector-curvature="0"
       sodipodi:nodetypes="sssss" />
    <path
       style="fill:#cccccc;stroke:#000000;stroke-width:1px;stroke-linecap:round;stroke-linejoin:round;stroke-opacity:1;display:inline"
       d="m 266.09384,65.315923 c -1.67938,1.68225 -0.9901,5.01375 0.0914,7.13049 0.60449,1.18312 1.93476,1.97011 3.19958,2.37683 1.74079,0.55978 3.87317,0.77215 5.48499,-0.0914 0.94622,-0.50696 1.48699,-1.63333 1.82833,-2.65108 0.44614,-1.33022 0.70333,-2.90223 0.18283,-4.20516 -0.43972,-1.1007 -1.463,-2.01853 -2.55966,-2.46824 -2.53758,-1.04061 -6.28977,-2.03243 -8.22747,-0.0914 z"
       id="path4065"
       inkscape:connector-curvature="0"
       sodipodi:nodetypes="ssssssss" />
    <path
       sodipodi:nodetypes="ccccc"
       inkscape:connector-curvature="0"
       id="path4067"
       d="m 282.57827,75.656216 c -6.41172,3.737699 -11.51563,10.875723 -19.88998,9.510584 L 261.528,78.235958 c 6.48917,2.363628 12.97834,-3.22223 19.46751,-5.556412 z"
       style="fill:#1a1a1a;stroke:#000000;stroke-width:1px;stroke-linecap:butt;stroke-linejoin:miter;stroke-opacity:1;display:inline" />
    <path
       sodipodi:nodetypes="sssssss"
       inkscape:connector-curvature="0"
       id="path4069"
       d="m 278.9724,58.368273 c -4.42416,0.95041 -9.06217,5.18701 -9.50732,9.69015 -0.36168,3.65871 2.71755,7.64514 6.03349,9.23307 3.0656,1.46804 7.43016,1.03661 10.14724,-1.00559 1.96765,-1.47891 2.79356,-4.3953 2.74249,-6.85623 -0.0679,-3.27275 -1.65018,-6.70308 -4.02233,-8.95882 -1.39834,-1.32972 -3.50698,-2.50786 -5.39357,-2.10258 z"
       style="fill:#1a1a1a;stroke:#000000;stroke-width:1px;stroke-linecap:butt;stroke-linejoin:miter;stroke-opacity:1;display:inline" />
    <path
       sodipodi:nodetypes="csssssssc"
       inkscape:connector-curvature="0"
       id="path4071"
       d="m 295.22393,38.896551 c -2.70061,-5.822857 -19.75777,-15.526047 -26.13278,-16.273255 -6.09108,-0.71393 -4.4927,12.185901 -4.85742,12.159511 -0.50253,-0.03636 -5.26186,10.791165 -2.37683,16.454974 2.37957,4.671491 7.86136,7.377672 12.79831,9.141652 3.91113,1.39745 8.47444,2.08064 12.43265,0.82275 3.36538,-1.06949 6.71787,-3.48114 8.22749,-6.673407 2.22768,-4.710651 2.10102,-10.905069 -0.0914,-15.632225 z"
       style="fill:#1a1a1a;stroke:#000000;stroke-width:1px;stroke-linecap:butt;stroke-linejoin:miter;stroke-opacity:1;display:inline" />
    <path
       sodipodi:nodetypes="csccc"
       inkscape:connector-curvature="0"
       id="path4073"
       d="m 263.11424,85.105116 c 0.43337,-0.676829 1.69642,-8.586617 -1.28741,-8.84138 -9.41772,-0.804097 -21.05786,15.390552 -18.91854,17.427521 4.62015,8.111883 11.37416,-1.494115 15.11601,-3.870446 z"
       style="fill:#4d4d4d;stroke:#000000;stroke-width:0.86647373px;stroke-linecap:butt;stroke-linejoin:miter;stroke-opacity:1;display:inline" />
    <path
       sodipodi:nodetypes="sssss"
       inkscape:connector-curvature="0"
       id="path4075"
       d="m 265.11128,78.370433 c 0.53478,-1.190777 -1.90217,-2.086325 -2.50751,-0.313117 -0.63148,1.849773 -3.61695,6.973485 -3.75031,8.190179 -0.24298,2.216688 1.81886,1.046823 2.12608,1.345578 1.68736,1.641135 3.99771,-8.92421 4.13174,-9.22264 z"
       style="fill:#ececec;stroke:#000000;stroke-width:1px;stroke-linecap:butt;stroke-linejoin:miter;stroke-opacity:1;display:inline" />
    <path
       sodipodi:nodetypes="ssssssss"
       inkscape:connector-curvature="0"
       id="path4077"
       d="m 284.96158,64.221366 c -1.67938,1.68225 -0.9901,5.01375 0.0914,7.13049 0.60449,1.18312 1.93476,1.97011 3.19958,2.37683 1.74079,0.55978 3.87317,0.77215 5.48499,-0.0914 0.94622,-0.50696 1.48699,-1.63333 1.82833,-2.65108 0.44614,-1.33022 0.70333,-2.90223 0.18283,-4.20516 -0.43972,-1.1007 -1.463,-2.01853 -2.55966,-2.46824 -2.53758,-1.04061 -6.28977,-2.03243 -8.22747,-0.0914 z"
       style="fill:#ffffff;stroke:#000000;stroke-width:1px;stroke-linecap:round;stroke-linejoin:round;stroke-opacity:1;display:inline" />
    <path
       sodipodi:nodetypes="sssssssss"
       inkscape:connector-curvature="0"
       id="path4079"
       d="m 283.33979,42.370379 c -1.01553,0.490729 -1.74871,1.580148 -2.10258,2.651079 -0.59306,1.794811 -0.61733,3.955278 0.18283,5.667824 0.48419,1.036287 1.50339,1.846522 2.55966,2.285413 1.91681,0.796453 4.37206,1.318131 6.21632,0.365666 1.02169,-0.52765 1.56588,-1.805785 1.82834,-2.925329 0.42632,-1.818469 0.43425,-3.988079 -0.5485,-5.576407 -0.81407,-1.315713 -2.44412,-2.040159 -3.93091,-2.468246 -1.347,-0.387836 -2.94307,-0.609873 -4.20516,0 z"
       style="fill:#ffffff;stroke:#000000;stroke-width:1px;stroke-linecap:butt;stroke-linejoin:miter;stroke-opacity:1;display:inline" />
    <path
       style="fill:#ffffff;stroke:#000000;stroke-width:0.80000001;stroke-linecap:butt;stroke-linejoin:miter;stroke-miterlimit:4;stroke-opacity:1;stroke-dasharray:none;display:inline"
       d="m 295.0753,43.333501 c 0.19619,0.368083 0.33783,1.185227 0.40618,1.988504 0.11451,1.34624 0.11926,2.966749 -0.0353,4.251284 -0.0936,0.777291 -0.29043,1.385027 -0.49449,1.714227 -0.37028,0.597398 -0.8446,0.988695 -1.20087,0.274277 -0.19738,-0.395777 -0.30251,-1.354472 -0.35321,-2.194212 -0.0824,-1.363985 -0.0839,-2.991352 0.10602,-4.182714 0.15732,-0.986882 0.47215,-1.530269 0.75937,-1.851366 0.26022,-0.290905 0.56854,-0.45745 0.81236,0 z"
       id="path4081"
       inkscape:connector-curvature="0"
       sodipodi:nodetypes="cssssssssc" />
    <path
       style="fill:#1a1a1a;stroke:#000000;stroke-width:1px;stroke-linecap:butt;stroke-linejoin:miter;stroke-opacity:1;display:inline"
       d="m 362.823,66.572764 -13.1941,25.858689 -5.31159,-2.91045 15.53779,-24.547404 z"
       id="path4083"
       inkscape:connector-curvature="0"
       sodipodi:nodetypes="ccccc" />
    <path
       style="fill:#4d4d4d;stroke:#000000;stroke-width:0.86647373px;stroke-linecap:butt;stroke-linejoin:miter;stroke-opacity:1;display:inline"
       d="m 344.7823,90.371823 c -0.79209,0.136 -6.28024,5.87148 -6.22086,8.86558 7.12355,0.0573 25.72244,0.13764 25.72244,0.13764 2.22676,-11.97324 -7.07782,-9.41651 -12.58736,-8.42113 z"
       id="path4085"
       inkscape:connector-curvature="0"
       sodipodi:nodetypes="ccccc" />
    <path
       style="fill:#ececec;stroke:#000000;stroke-width:1px;stroke-linecap:butt;stroke-linejoin:miter;stroke-opacity:1;display:inline"
       d="m 345.10717,88.017013 c -1.29299,0.17922 -2.50715,3.04733 -0.68317,2.6186 1.90273,-0.44725 6.06737,0.73623 7.16915,0.20311 2.00732,-0.97129 -0.0789,-2.09712 0.0111,-2.51609 0.49453,-2.30129 -6.17303,-0.35053 -6.49707,-0.30562 z"
       id="path4087"
       inkscape:connector-curvature="0"
       sodipodi:nodetypes="sssss" />
    <path
       style="fill:#cccccc;stroke:#000000;stroke-width:1px;stroke-linecap:round;stroke-linejoin:round;stroke-opacity:1;display:inline"
       d="m 360.09384,65.315923 c -1.67938,1.68225 -0.9901,5.01375 0.0914,7.13049 0.60449,1.18312 1.93476,1.97011 3.19958,2.37683 1.74079,0.55978 3.87317,0.77215 5.48499,-0.0914 0.94622,-0.50696 1.48699,-1.63333 1.82833,-2.65108 0.44614,-1.33022 0.70333,-2.90223 0.18283,-4.20516 -0.43972,-1.1007 -1.463,-2.01853 -2.55966,-2.46824 -2.53758,-1.04061 -6.28977,-2.03243 -8.22747,-0.0914 z"
       id="path4089"
       inkscape:connector-curvature="0"
       sodipodi:nodetypes="ssssssss" />
    <path
       sodipodi:nodetypes="ccccc"
       inkscape:connector-curvature="0"
       id="path4091"
       d="m 365.01552,75.314921 c 1.84663,6.95128 -1.61943,5.08265 -5.34145,12.14102 l -4.34226,-5.804324 c 7.55844,-1.39078 3.93722,-5.474501 6.53138,-9.104072 z"
       style="fill:#1a1a1a;stroke:#000000;stroke-width:1px;stroke-linecap:butt;stroke-linejoin:miter;stroke-opacity:1;display:inline" />
    <path
       sodipodi:nodetypes="sssssss"
       inkscape:connector-curvature="0"
       id="path4093"
       d="m 358.9724,58.368273 c -4.42416,0.95041 -9.06217,5.18701 -9.50732,9.69015 -0.36168,3.65871 2.71755,7.64514 6.03349,9.23307 3.0656,1.46804 7.43016,1.03661 10.14724,-1.00559 1.96765,-1.47891 2.79356,-4.3953 2.74249,-6.85623 -0.0679,-3.27275 -1.65018,-6.70308 -4.02233,-8.95882 -1.39834,-1.32972 -3.50698,-2.50786 -5.39357,-2.10258 z"
       style="fill:#1a1a1a;stroke:#000000;stroke-width:1px;stroke-linecap:butt;stroke-linejoin:miter;stroke-opacity:1;display:inline" />
    <path
       sodipodi:nodetypes="csssssssc"
       inkscape:connector-curvature="0"
       id="path4095"
       d="m 375.22393,38.896551 c -2.70061,-5.822857 -19.75777,-15.526047 -26.13278,-16.273255 -6.09108,-0.71393 -4.4927,12.185901 -4.85742,12.159511 -0.50253,-0.03636 -5.26186,10.791165 -2.37683,16.454974 2.37957,4.671491 7.86136,7.377672 12.79831,9.141652 3.91113,1.39745 8.47444,2.08064 12.43265,0.82275 3.36538,-1.06949 6.71787,-3.48114 8.22749,-6.673407 2.22768,-4.710651 2.10102,-10.905069 -0.0914,-15.632225 z"
       style="fill:#1a1a1a;stroke:#000000;stroke-width:1px;stroke-linecap:butt;stroke-linejoin:miter;stroke-opacity:1;display:inline" />
    <path
       sodipodi:nodetypes="cscscc"
       inkscape:connector-curvature="0"
       id="path4097"
       d="m 357.23385,80.574784 c -0.59661,-0.538471 -11.59805,-2.298359 -10.81421,0.591929 1.8646,6.875432 15.30156,17.998371 15.30156,17.998371 2.37168,0.167765 7.27291,0.42751 7.88992,-0.727019 3.17324,-5.937633 -1.6806,-9.550515 -8.55992,-12.069048 z"
       style="fill:#4d4d4d;stroke:#000000;stroke-width:0.86647373px;stroke-linecap:butt;stroke-linejoin:miter;stroke-opacity:1;display:inline" />
    <path
       sodipodi:nodetypes="sssss"
       inkscape:connector-curvature="0"
       id="path4099"
       d="m 357.48189,80.216769 c -1.05044,-0.77493 -3.92271,0.42935 -2.31801,1.39664 1.67399,1.009046 3.82748,4.765015 4.9883,5.153134 2.11489,0.707105 1.40842,-1.555794 1.76548,-1.792739 1.96138,-1.301344 -4.17251,-4.562817 -4.43576,-4.757028 z"
       style="fill:#ececec;stroke:#000000;stroke-width:1px;stroke-linecap:butt;stroke-linejoin:miter;stroke-opacity:1;display:inline" />
    <path
       sodipodi:nodetypes="ssssssss"
       inkscape:connector-curvature="0"
       id="path4101"
       d="m 343.31931,65.122365 c -1.67938,1.68225 -0.9901,5.01375 0.0914,7.13049 0.60449,1.18312 1.93476,1.97011 3.19958,2.37683 1.74079,0.55978 3.87317,0.77215 5.48499,-0.0914 0.94622,-0.50696 1.48699,-1.63333 1.82833,-2.65108 0.44614,-1.33022 0.70333,-2.90223 0.18283,-4.20516 -0.43972,-1.1007 -1.463,-2.01853 -2.55966,-2.46824 -2.53758,-1.04061 -6.28977,-2.03243 -8.22747,-0.0914 z"
       style="fill:#ffffff;stroke:#000000;stroke-width:1px;stroke-linecap:round;stroke-linejoin:round;stroke-opacity:1;display:inline" />
    <path
       sodipodi:nodetypes="sssssssss"
       inkscape:connector-curvature="0"
       id="path4103"
       d="m 363.33979,42.370379 c -1.01553,0.490729 -1.74871,1.580148 -2.10258,2.651079 -0.59306,1.794811 -0.61733,3.955278 0.18283,5.667824 0.48419,1.036287 1.50339,1.846522 2.55966,2.285413 1.91681,0.796453 4.37206,1.318131 6.21632,0.365666 1.02169,-0.52765 1.56588,-1.805785 1.82834,-2.925329 0.42632,-1.818469 0.43425,-3.988079 -0.5485,-5.576407 -0.81407,-1.315713 -2.44412,-2.040159 -3.93091,-2.468246 -1.347,-0.387836 -2.94307,-0.609873 -4.20516,0 z"
       style="fill:#ffffff;stroke:#000000;stroke-width:1px;stroke-linecap:butt;stroke-linejoin:miter;stroke-opacity:1;display:inline" />
    <path
       style="fill:#ffffff;stroke:#000000;stroke-width:0.80000001;stroke-linecap:butt;stroke-linejoin:miter;stroke-miterlimit:4;stroke-opacity:1;stroke-dasharray:none;display:inline"
       d="m 375.0753,43.333501 c 0.19619,0.368083 0.33783,1.185227 0.40618,1.988504 0.11451,1.34624 0.11926,2.966749 -0.0353,4.251284 -0.0936,0.777291 -0.29043,1.385027 -0.49449,1.714227 -0.37028,0.597398 -0.8446,0.988695 -1.20087,0.274277 -0.19738,-0.395777 -0.30251,-1.354472 -0.35321,-2.194212 -0.0824,-1.363985 -0.0839,-2.991352 0.10602,-4.182714 0.15732,-0.986882 0.47215,-1.530269 0.75937,-1.851366 0.26022,-0.290905 0.56854,-0.45745 0.81236,0 z"
       id="path4105"
       inkscape:connector-curvature="0"
       sodipodi:nodetypes="cssssssssc" />
    <path
       style="fill:#1a1a1a;stroke:#000000;stroke-width:1px;stroke-linecap:butt;stroke-linejoin:miter;stroke-opacity:1;display:inline"
       d="m 432.90372,72.290732 c -2.10343,4.936839 -9.19118,8.463886 -14.12645,11.761241 l -3.10303,-5.201435 c 6.99701,-1.870659 10.45816,-5.509243 14.49289,-8.86104 z"
       id="path4107"
       inkscape:connector-curvature="0"
       sodipodi:nodetypes="ccccc" />
    <path
       style="fill:#4d4d4d;stroke:#000000;stroke-width:0.86647373px;stroke-linecap:butt;stroke-linejoin:miter;stroke-opacity:1;display:inline"
       d="m 415.63608,80.077035 c -0.67829,-0.431068 -4.75669,0.250531 -6.72308,2.509175 -2.63067,5.748061 4.47129,15.229053 11.19166,17.127088 2.3999,-0.01265 8.94576,0.746402 10.16302,-0.506903 4.21582,-3.454498 1.37896,-9.325124 -6.84702,-10.253975 -1.48861,-0.16809 -2.06404,-2.342672 -3.05165,-3.801466 z"
       id="path4109"
       inkscape:connector-curvature="0"
       sodipodi:nodetypes="ccccscc" />
    <path
       style="fill:#ececec;stroke:#000000;stroke-width:1px;stroke-linecap:butt;stroke-linejoin:miter;stroke-opacity:1;display:inline"
       d="m 417.01796,78.006878 c -1.07396,-0.741991 -3.90752,0.550758 -2.2736,1.467833 1.70447,0.956662 3.97337,4.644062 5.14567,4.996006 2.13579,0.641198 1.3595,-1.598711 1.70905,-1.846612 1.92009,-1.361526 -4.31197,-4.431264 -4.58112,-4.61722 z"
       id="path4111"
       inkscape:connector-curvature="0"
       sodipodi:nodetypes="sssss" />
    <path
       style="fill:#cccccc;stroke:#000000;stroke-width:1px;stroke-linecap:round;stroke-linejoin:round;stroke-opacity:1;display:inline"
       d="m 449.52748,62.352901 c -1.67938,1.68225 -0.9901,5.01375 0.0914,7.13049 0.60449,1.18312 1.93476,1.97011 3.19958,2.37683 1.74079,0.55978 3.87317,0.77215 5.48499,-0.0914 0.94622,-0.50696 1.48699,-1.63333 1.82833,-2.65108 0.44614,-1.33022 0.70333,-2.90223 0.18283,-4.20516 -0.43972,-1.1007 -1.463,-2.01853 -2.55966,-2.46824 -2.53758,-1.04061 -6.28977,-2.03243 -8.22747,-0.0914 z"
       id="path4113"
       inkscape:connector-curvature="0"
       sodipodi:nodetypes="ssssssss" />
    <path
       sodipodi:nodetypes="csccc"
       inkscape:connector-curvature="0"
       id="path4115"
       d="m 442.03881,67.126925 c -0.0406,0.05077 9.66334,4.362468 11.48331,7.547494 1.00164,1.752911 -3.70792,4.789058 -3.70792,4.789058 l -9.82049,-9.656383 z"
       style="fill:#1a1a1a;stroke:#000000;stroke-width:1px;stroke-linecap:butt;stroke-linejoin:miter;stroke-opacity:1;display:inline" />
    <path
       sodipodi:nodetypes="sssssss"
       inkscape:connector-curvature="0"
       id="path4117"
       d="m 438.9724,58.368273 c -4.42416,0.95041 -9.06217,5.18701 -9.50732,9.69015 -0.36168,3.65871 2.71755,7.64514 6.03349,9.23307 3.0656,1.46804 7.43016,1.03661 10.14724,-1.00559 1.96765,-1.47891 2.79356,-4.3953 2.74249,-6.85623 -0.0679,-3.27275 -1.65018,-6.70308 -4.02233,-8.95882 -1.39834,-1.32972 -3.50698,-2.50786 -5.39357,-2.10258 z"
       style="fill:#1a1a1a;stroke:#000000;stroke-width:1px;stroke-linecap:butt;stroke-linejoin:miter;stroke-opacity:1;display:inline" />
    <path
       sodipodi:nodetypes="csssssssc"
       inkscape:connector-curvature="0"
       id="path4119"
       d="m 455.22393,38.896551 c -2.70061,-5.822857 -19.75777,-15.526047 -26.13278,-16.273255 -6.09108,-0.71393 -4.4927,12.185901 -4.85742,12.159511 -0.50253,-0.03636 -5.26186,10.791165 -2.37683,16.454974 2.37957,4.671491 7.86136,7.377672 12.79831,9.141652 3.91113,1.39745 8.47444,2.08064 12.43265,0.82275 3.36538,-1.06949 6.71787,-3.48114 8.22749,-6.673407 2.22768,-4.710651 2.10102,-10.905069 -0.0914,-15.632225 z"
       style="fill:#1a1a1a;stroke:#000000;stroke-width:1px;stroke-linecap:butt;stroke-linejoin:miter;stroke-opacity:1;display:inline" />
    <path
       sodipodi:nodetypes="csscc"
       inkscape:connector-curvature="0"
       id="path4121"
       d="m 446.32711,76.263736 c -0.6989,-0.396785 -12.37495,0.637744 -10.43063,2.915409 4.26586,4.997219 18.0054,17.361474 19.81008,16.408039 9.34125,-4.935111 -3.37517,-13.800247 -4.39994,-14.4913 z"
       style="fill:#4d4d4d;stroke:#000000;stroke-width:0.86647373px;stroke-linecap:butt;stroke-linejoin:miter;stroke-opacity:1;display:inline" />
    <path
       sodipodi:nodetypes="sssss"
       inkscape:connector-curvature="0"
       id="path4123"
       d="m 446.89937,74.394543 c -1.19433,-0.526797 -3.73424,1.275736 -1.95701,1.869193 1.85395,0.619073 4.7758,3.814023 5.99335,3.93924 2.21827,0.228126 1.03462,-1.825843 1.33132,-2.135054 1.6298,-1.698307 -5.06834,-3.541346 -5.36765,-3.673375 z"
       style="fill:#ececec;stroke:#000000;stroke-width:1px;stroke-linecap:butt;stroke-linejoin:miter;stroke-opacity:1;display:inline" />
    <path
       sodipodi:nodetypes="ssssssss"
       inkscape:connector-curvature="0"
       id="path4125"
       d="m 418.53475,61.638573 c -1.67938,1.68225 -0.9901,5.01375 0.0914,7.13049 0.60449,1.18312 1.93476,1.97011 3.19958,2.37683 1.74079,0.55978 3.87317,0.77215 5.48499,-0.0914 0.94622,-0.50696 1.48699,-1.63333 1.82833,-2.65108 0.44614,-1.33022 0.70333,-2.90223 0.18283,-4.20516 -0.43972,-1.1007 -1.463,-2.01853 -2.55966,-2.46824 -2.53758,-1.04061 -6.28977,-2.03243 -8.22747,-0.0914 z"
       style="fill:#ffffff;stroke:#000000;stroke-width:1px;stroke-linecap:round;stroke-linejoin:round;stroke-opacity:1;display:inline" />
    <path
       sodipodi:nodetypes="sssssssss"
       inkscape:connector-curvature="0"
       id="path4127"
       d="m 443.33979,42.370379 c -1.01553,0.490729 -1.74871,1.580148 -2.10258,2.651079 -0.59306,1.794811 -0.61733,3.955278 0.18283,5.667824 0.48419,1.036287 1.50339,1.846522 2.55966,2.285413 1.91681,0.796453 4.37206,1.318131 6.21632,0.365666 1.02169,-0.52765 1.56588,-1.805785 1.82834,-2.925329 0.42632,-1.818469 0.43425,-3.988079 -0.5485,-5.576407 -0.81407,-1.315713 -2.44412,-2.040159 -3.93091,-2.468246 -1.347,-0.387836 -2.94307,-0.609873 -4.20516,0 z"
       style="fill:#ffffff;stroke:#000000;stroke-width:1px;stroke-linecap:butt;stroke-linejoin:miter;stroke-opacity:1;display:inline" />
    <path
       style="fill:#ffffff;stroke:#000000;stroke-width:0.80000001;stroke-linecap:butt;stroke-linejoin:miter;stroke-miterlimit:4;stroke-opacity:1;stroke-dasharray:none;display:inline"
       d="m 455.0753,43.333501 c 0.19619,0.368083 0.33783,1.185227 0.40618,1.988504 0.11451,1.34624 0.11926,2.966749 -0.0353,4.251284 -0.0936,0.777291 -0.29043,1.385027 -0.49449,1.714227 -0.37028,0.597398 -0.8446,0.988695 -1.20087,0.274277 -0.19738,-0.395777 -0.30251,-1.354472 -0.35321,-2.194212 -0.0824,-1.363985 -0.0839,-2.991352 0.10602,-4.182714 0.15732,-0.986882 0.47215,-1.530269 0.75937,-1.851366 0.26022,-0.290905 0.56854,-0.45745 0.81236,0 z"
       id="path4129"
       inkscape:connector-curvature="0"
       sodipodi:nodetypes="cssssssssc" />
    <path
       style="fill:#1a1a1a;stroke:#000000;stroke-width:1px;stroke-linecap:butt;stroke-linejoin:miter;stroke-opacity:1;display:inline"
       d="m 513.69735,76.263736 c -4.81542,4.485925 -11.13863,6.521695 -17.12383,9.106731 l -2.39441,-5.563322 c 5.41748,-2.198756 11.35072,-1.818735 15.77841,-8.966408 z"
       id="path4131"
       inkscape:connector-curvature="0"
       sodipodi:nodetypes="ccccc" />
    <path
       style="fill:#4d4d4d;stroke:#000000;stroke-width:0.86647373px;stroke-linecap:butt;stroke-linejoin:miter;stroke-opacity:1;display:inline"
       d="m 496.73732,79.596375 c -0.0646,-0.392191 0.98212,-1.770469 -0.71868,-3.332639 -2.9644,-2.72278 -14.84619,9.918333 -13.74743,12.759255 -3.15806,9.351845 11.74592,14.221099 16.04333,8.852887 1.5411,-1.925097 -8.98038,-3.814989 -0.11209,-11.660301 z"
       id="path4133"
       inkscape:connector-curvature="0"
       sodipodi:nodetypes="cscscc" />
    <path
       style="fill:#ececec;stroke:#000000;stroke-width:1px;stroke-linecap:butt;stroke-linejoin:miter;stroke-opacity:1;display:inline"
       d="m 500.20607,77.972281 c -0.34027,-1.260222 -3.33821,-2.104366 -2.68368,-0.348715 0.68279,1.83145 0.032,6.111791 0.69934,7.137849 1.21582,1.869362 2.07058,-0.341788 2.49754,-0.305148 2.34519,0.201442 -0.42792,-6.168148 -0.51319,-6.483976 z"
       id="path4135"
       inkscape:connector-curvature="0"
       sodipodi:nodetypes="sssss" />
    <path
       style="fill:#cccccc;stroke:#000000;stroke-width:1px;stroke-linecap:round;stroke-linejoin:round;stroke-opacity:1;display:inline"
       d="m 532.38445,60.283667 c -1.67938,1.68225 -0.9901,5.01375 0.0914,7.13049 0.60449,1.18312 1.93476,1.97011 3.19958,2.37683 1.74079,0.55978 3.87317,0.77215 5.48499,-0.0914 0.94622,-0.50696 1.48699,-1.63333 1.82833,-2.65108 0.44614,-1.33022 0.70333,-2.90223 0.18283,-4.20516 -0.43972,-1.1007 -1.463,-2.01853 -2.55966,-2.46824 -2.53758,-1.04061 -6.28977,-2.03243 -8.22747,-0.0914 z"
       id="path4137"
       inkscape:connector-curvature="0"
       sodipodi:nodetypes="ssssssss" />
    <path
       sodipodi:nodetypes="ccccc"
       inkscape:connector-curvature="0"
       id="path4139"
       d="m 527.2643,69.144641 c 4.47589,0.275941 7.21282,2.98641 10.20322,5.342036 l -2.08403,5.686879 c -2.32761,-2.658488 -3.25393,-7.160768 -8.26789,-6.284592 z"
       style="fill:#1a1a1a;stroke:#000000;stroke-width:1px;stroke-linecap:butt;stroke-linejoin:miter;stroke-opacity:1;display:inline" />
    <path
       sodipodi:nodetypes="sssssss"
       inkscape:connector-curvature="0"
       id="path4141"
       d="m 518.9724,58.368273 c -4.42416,0.95041 -9.06217,5.18701 -9.50732,9.69015 -0.36168,3.65871 2.71755,7.64514 6.03349,9.23307 3.0656,1.46804 7.43016,1.03661 10.14724,-1.00559 1.96765,-1.47891 2.79356,-4.3953 2.74249,-6.85623 -0.0679,-3.27275 -1.65018,-6.70308 -4.02233,-8.95882 -1.39834,-1.32972 -3.50698,-2.50786 -5.39357,-2.10258 z"
       style="fill:#1a1a1a;stroke:#000000;stroke-width:1px;stroke-linecap:butt;stroke-linejoin:miter;stroke-opacity:1;display:inline" />
    <path
       sodipodi:nodetypes="csssssssc"
       inkscape:connector-curvature="0"
       id="path4143"
       d="m 535.22393,38.896551 c -2.70061,-5.822857 -19.75777,-15.526047 -26.13278,-16.273255 -6.09108,-0.71393 -4.4927,12.185901 -4.85742,12.159511 -0.50253,-0.03636 -5.26186,10.791165 -2.37683,16.454974 2.37957,4.671491 7.86136,7.377672 12.79831,9.141652 3.91113,1.39745 8.47444,2.08064 12.43265,0.82275 3.36538,-1.06949 6.71787,-3.48114 8.22749,-6.673407 2.22768,-4.710651 2.10102,-10.905069 -0.0914,-15.632225 z"
       style="fill:#1a1a1a;stroke:#000000;stroke-width:1px;stroke-linecap:butt;stroke-linejoin:miter;stroke-opacity:1;display:inline" />
    <path
       sodipodi:nodetypes="csscc"
       inkscape:connector-curvature="0"
       id="path4145"
       d="m 534.89381,78.528297 c -0.53447,0.600204 -1.37268,13.00526 0.66424,10.810013 4.75417,-5.123703 21.4936,-13.11345 20.19598,-15.93064 -5.09502,-11.061536 -11.40484,-2.948852 -15.09164,1.264614 z"
       style="fill:#4d4d4d;stroke:#000000;stroke-width:0.86647373px;stroke-linecap:butt;stroke-linejoin:miter;stroke-opacity:1;display:inline" />
    <path
       sodipodi:nodetypes="sssss"
       inkscape:connector-curvature="0"
       id="path4147"
       d="m 534.33938,76.701652 c -1.03685,0.793023 -0.68026,3.887063 0.69572,2.615295 1.43538,-1.326686 5.64254,-2.34878 6.33863,-3.355554 1.26819,-1.834235 -1.10193,-1.786028 -1.23004,-2.194957 -0.70353,-2.246229 -5.54445,2.736473 -5.8043,2.935211 z"
       style="fill:#ececec;stroke:#000000;stroke-width:1px;stroke-linecap:butt;stroke-linejoin:miter;stroke-opacity:1;display:inline" />
    <path
       sodipodi:nodetypes="ssssssss"
       inkscape:connector-curvature="0"
       id="path4149"
       d="m 496.20878,59.961961 c -1.67938,1.68225 -0.9901,5.01375 0.0914,7.13049 0.60449,1.18312 1.93476,1.97011 3.19958,2.37683 1.74079,0.55978 3.87317,0.77215 5.48499,-0.0914 0.94622,-0.50696 1.48699,-1.63333 1.82833,-2.65108 0.44614,-1.33022 0.70333,-2.90223 0.18283,-4.20516 -0.43972,-1.1007 -1.463,-2.01853 -2.55966,-2.46824 -2.53758,-1.04061 -6.28977,-2.03243 -8.22747,-0.0914 z"
       style="fill:#ffffff;stroke:#000000;stroke-width:1px;stroke-linecap:round;stroke-linejoin:round;stroke-opacity:1;display:inline" />
    <path
       sodipodi:nodetypes="sssssssss"
       inkscape:connector-curvature="0"
       id="path4151"
       d="m 523.33979,42.370379 c -1.01553,0.490729 -1.74871,1.580148 -2.10258,2.651079 -0.59306,1.794811 -0.61733,3.955278 0.18283,5.667824 0.48419,1.036287 1.50339,1.846522 2.55966,2.285413 1.91681,0.796453 4.37206,1.318131 6.21632,0.365666 1.02169,-0.52765 1.56588,-1.805785 1.82834,-2.925329 0.42632,-1.818469 0.43425,-3.988079 -0.5485,-5.576407 -0.81407,-1.315713 -2.44412,-2.040159 -3.93091,-2.468246 -1.347,-0.387836 -2.94307,-0.609873 -4.20516,0 z"
       style="fill:#ffffff;stroke:#000000;stroke-width:1px;stroke-linecap:butt;stroke-linejoin:miter;stroke-opacity:1;display:inline" />
    <path
       style="fill:#ffffff;stroke:#000000;stroke-width:0.80000001;stroke-linecap:butt;stroke-linejoin:miter;stroke-miterlimit:4;stroke-opacity:1;stroke-dasharray:none;display:inline"
       d="m 535.0753,43.333501 c 0.19619,0.368083 0.33783,1.185227 0.40618,1.988504 0.11451,1.34624 0.11926,2.966749 -0.0353,4.251284 -0.0936,0.777291 -0.29043,1.385027 -0.49449,1.714227 -0.37028,0.597398 -0.8446,0.988695 -1.20087,0.274277 -0.19738,-0.395777 -0.30251,-1.354472 -0.35321,-2.194212 -0.0824,-1.363985 -0.0839,-2.991352 0.10602,-4.182714 0.15732,-0.986882 0.47215,-1.530269 0.75937,-1.851366 0.26022,-0.290905 0.56854,-0.45745 0.81236,0 z"
       id="path4153"
       inkscape:connector-curvature="0"
       sodipodi:nodetypes="cssssssssc" />
    <path
       style="fill:#1a1a1a;stroke:#000000;stroke-width:1px;stroke-linecap:butt;stroke-linejoin:miter;stroke-opacity:1;display:inline"
       d="m 600.47673,76.263736 -5.57425,6.015293 c -7.30847,1.798392 -11.05114,-1.685888 -14.22335,-6.015293 l 1.62499,-3.333376 3.17466,0.389476 7.56968,4.380599 5.68588,-4.322841 z"
       id="path4155"
       inkscape:connector-curvature="0"
       sodipodi:nodetypes="cccccccc" />
    <path
       style="fill:#4d4d4d;stroke:#000000;stroke-width:0.86647373px;stroke-linecap:butt;stroke-linejoin:miter;stroke-opacity:1;display:inline"
       d="m 581.31523,81.507065 c 0.41374,-0.689007 -0.35209,-8.590211 -2.65987,-10.498697 -2.94591,-0.434794 -16.94402,14.808712 -16.9312,16.590024 0.0342,4.755515 -0.32568,5.929805 -0.13598,7.036394 1.03391,1.288759 4.55172,1.10489 5.42209,0.37981 8.53828,-7.11303 6.89769,-4.477274 9.35269,-8.647468 z"
       id="path4157"
       inkscape:connector-curvature="0"
       sodipodi:nodetypes="ccscscc" />
    <path
       style="fill:#ececec;stroke:#000000;stroke-width:1px;stroke-linecap:butt;stroke-linejoin:miter;stroke-opacity:1;display:inline"
       d="m 583.29902,72.427209 c -0.3488,-1.257886 -3.87599,-0.801796 -3.20958,0.949379 0.69519,1.82678 0.18975,8.147633 0.86405,9.169144 1.22846,1.86108 2.06822,-0.355813 2.49542,-0.322067 2.3465,0.185543 -0.26624,-5.959929 -0.26624,-5.959929 z"
       id="path4159"
       inkscape:connector-curvature="0"
       sodipodi:nodetypes="cssssc" />
    <path
       style="fill:#cccccc;stroke:#000000;stroke-width:1px;stroke-linecap:round;stroke-linejoin:round;stroke-opacity:1;display:inline"
       d="m 609.22343,63.380342 c -1.67938,1.68225 -0.9901,5.01375 0.0914,7.13049 0.60449,1.18312 1.93476,1.97011 3.19958,2.37683 1.74079,0.55978 3.87317,0.77215 5.48499,-0.0914 0.94622,-0.50696 1.48699,-1.63333 1.82833,-2.65108 0.44614,-1.33022 0.70333,-2.90223 0.18283,-4.20516 -0.43972,-1.1007 -1.463,-2.01853 -2.55966,-2.46824 -2.53758,-1.04061 -6.28977,-2.03243 -8.22747,-0.0914 z"
       id="path4161"
       inkscape:connector-curvature="0"
       sodipodi:nodetypes="ssssssss" />
    <path
       sodipodi:nodetypes="ccccc"
       inkscape:connector-curvature="0"
       id="path4163"
       d="m 605.53782,73.854597 c 8.66692,0.523039 10.85108,8.0917 13.30289,12.904941 l -3.48563,3.393167 C 612.6678,85.244777 610.18347,77.9078 603.17948,76.263736 z"
       style="fill:#1a1a1a;stroke:#000000;stroke-width:1px;stroke-linecap:butt;stroke-linejoin:miter;stroke-opacity:1;display:inline" />
    <path
       sodipodi:nodetypes="sssssss"
       inkscape:connector-curvature="0"
       id="path4165"
       d="m 598.9724,58.368273 c -4.42416,0.95041 -9.06217,5.18701 -9.50732,9.69015 -0.36168,3.65871 2.71755,7.64514 6.03349,9.23307 3.0656,1.46804 7.43016,1.03661 10.14724,-1.00559 1.96765,-1.47891 2.79356,-4.3953 2.74249,-6.85623 -0.0679,-3.27275 -1.65018,-6.70308 -4.02233,-8.95882 -1.39834,-1.32972 -3.50698,-2.50786 -5.39357,-2.10258 z"
       style="fill:#1a1a1a;stroke:#000000;stroke-width:1px;stroke-linecap:butt;stroke-linejoin:miter;stroke-opacity:1;display:inline" />
    <path
       sodipodi:nodetypes="csssssssc"
       inkscape:connector-curvature="0"
       id="path4167"
       d="m 615.22393,38.896551 c -2.70061,-5.822857 -19.75777,-15.526047 -26.13278,-16.273255 -6.09108,-0.71393 -4.4927,12.185901 -4.85742,12.159511 -0.50253,-0.03636 -5.26186,10.791165 -2.37683,16.454974 2.37957,4.671491 7.86136,7.377672 12.79831,9.141652 3.91113,1.39745 8.47444,2.08064 12.43265,0.82275 3.36538,-1.06949 6.71787,-3.48114 8.22749,-6.673407 2.22768,-4.710651 2.10102,-10.905069 -0.0914,-15.632225 z"
       style="fill:#1a1a1a;stroke:#000000;stroke-width:1px;stroke-linecap:butt;stroke-linejoin:miter;stroke-opacity:1;display:inline" />
    <path
       sodipodi:nodetypes="ccsscc"
       inkscape:connector-curvature="0"
       id="path4169"
       d="m 615.08997,90.224474 c -1.49301,3.872371 -3.5018,2.663879 -1.66214,7.118096 2.00626,0.373353 5.1444,1.658974 6.45342,0.712916 7.06035,-5.10266 16.12887,-12.117232 15.57146,-14.666859 -2.60111,-11.897533 -11.6104,-1.991225 -14.93443,2.513951 z"
       style="fill:#4d4d4d;stroke:#000000;stroke-width:0.86647373px;stroke-linecap:butt;stroke-linejoin:miter;stroke-opacity:1;display:inline" />
    <path
       sodipodi:nodetypes="cssssc"
       inkscape:connector-curvature="0"
       id="path4171"
       d="m 612.38083,88.800867 c -0.80456,1.027929 1.88059,3.110608 2.89323,1.534128 1.05634,-1.64455 4.87216,-3.690123 5.29321,-4.839409 0.76709,-2.093873 -1.51502,-1.452188 -1.74169,-1.815858 -1.24492,-1.99767 -7.07222,2.997357 -6.97953,3.311085 z"
       style="fill:#ececec;stroke:#000000;stroke-width:1px;stroke-linecap:butt;stroke-linejoin:miter;stroke-opacity:1;display:inline" />
    <path
       sodipodi:nodetypes="ssssssss"
       inkscape:connector-curvature="0"
       id="path4173"
       d="m 582.06118,60.089855 c -1.67938,1.68225 -0.9901,5.01375 0.0914,7.13049 0.60449,1.18312 1.93476,1.97011 3.19958,2.37683 1.74079,0.55978 3.87317,0.77215 5.48499,-0.0914 0.94622,-0.50696 1.48699,-1.63333 1.82833,-2.65108 0.44614,-1.33022 0.70333,-2.90223 0.18283,-4.20516 -0.43972,-1.1007 -1.463,-2.01853 -2.55966,-2.46824 -2.53758,-1.04061 -6.28977,-2.03243 -8.22747,-0.0914 z"
       style="fill:#ffffff;stroke:#000000;stroke-width:1px;stroke-linecap:round;stroke-linejoin:round;stroke-opacity:1;display:inline" />
    <path
       sodipodi:nodetypes="sssssssss"
       inkscape:connector-curvature="0"
       id="path4175"
       d="m 603.33979,42.370379 c -1.01553,0.490729 -1.74871,1.580148 -2.10258,2.651079 -0.59306,1.794811 -0.61733,3.955278 0.18283,5.667824 0.48419,1.036287 1.50339,1.846522 2.55966,2.285413 1.91681,0.796453 4.37206,1.318131 6.21632,0.365666 1.02169,-0.52765 1.56588,-1.805785 1.82834,-2.925329 0.42632,-1.818469 0.43425,-3.988079 -0.5485,-5.576407 -0.81407,-1.315713 -2.44412,-2.040159 -3.93091,-2.468246 -1.347,-0.387836 -2.94307,-0.609873 -4.20516,0 z"
       style="fill:#ffffff;stroke:#000000;stroke-width:1px;stroke-linecap:butt;stroke-linejoin:miter;stroke-opacity:1;display:inline" />
    <path
       style="fill:#ffffff;stroke:#000000;stroke-width:0.80000001;stroke-linecap:butt;stroke-linejoin:miter;stroke-miterlimit:4;stroke-opacity:1;stroke-dasharray:none;display:inline"
       d="m 615.0753,43.333501 c 0.19619,0.368083 0.33783,1.185227 0.40618,1.988504 0.11451,1.34624 0.11926,2.966749 -0.0353,4.251284 -0.0936,0.777291 -0.29043,1.385027 -0.49449,1.714227 -0.37028,0.597398 -0.8446,0.988695 -1.20087,0.274277 -0.19738,-0.395777 -0.30251,-1.354472 -0.35321,-2.194212 -0.0824,-1.363985 -0.0839,-2.991352 0.10602,-4.182714 0.15732,-0.986882 0.47215,-1.530269 0.75937,-1.851366 0.26022,-0.290905 0.56854,-0.45745 0.81236,0 z"
       id="path4177"
       inkscape:connector-curvature="0"
       sodipodi:nodetypes="cssssssssc" />
  </g>
</svg>
