<?xml version="1.0" encoding="utf-8"?>
<!-- Generator: Adobe Illustrator 16.0.0, SVG Export Plug-In . SVG Version: 6.00 Build 0)  -->
<!DOCTYPE svg PUBLIC "-//W3C//DTD SVG 1.1//EN" "http://www.w3.org/Graphics/SVG/1.1/DTD/svg11.dtd">
<svg version="1.1"
	 id="svg2" inkscape:export-filename="/var/www/game_2D_dev/images/character.png" sodipodi:docname="inkscaped_sprite.svg" inkscape:version="0.48.3.1 r9886" inkscape:export-ydpi="90" inkscape:export-xdpi="90" xmlns:dc="http://purl.org/dc/elements/1.1/" xmlns:cc="http://creativecommons.org/ns#" xmlns:rdf="http://www.w3.org/1999/02/22-rdf-syntax-ns#" xmlns:svg="http://www.w3.org/2000/svg" xmlns:sodipodi="http://sodipodi.sourceforge.net/DTD/sodipodi-0.dtd" xmlns:inkscape="http://www.inkscape.org/namespaces/inkscape"
	 xmlns="http://www.w3.org/2000/svg" xmlns:xlink="http://www.w3.org/1999/xlink" x="0px" y="0px" width="804.5px" height="80px"
	 viewBox="0 0 804.5 80" enable-background="new 0 0 804.5 80" xml:space="preserve">
<sodipodi:namedview  inkscape:window-width="1680" inkscape:snap-grids="false" inkscape:showpageshadow="true" fit-margin-bottom="0" fit-margin-right="0" inkscape:pageshadow="2" inkscape:current-layer="layer2" inkscape:document-units="px" inkscape:pageopacity="0.0" showguides="true" borderlayer="true" fit-margin-left="0" fit-margin-top="0" showgrid="true" inkscape:cy="40" inkscape:cx="360" inkscape:zoom="2.1486111" borderopacity="1" bordercolor="#00cc19" pagecolor="#ffffff" id="base" inkscape:snap-to-guides="false" inkscape:guide-bbox="true" inkscape:window-maximized="1" inkscape:window-y="25" inkscape:window-x="0" inkscape:window-height="1001">
	
		<inkscape:grid  type="xygrid" spacingy="5px" spacingx="5px" enabled="true" visible="true" dotted="false" empspacing="4" id="grid3066" snapvisiblegridlinesonly="true">
		</inkscape:grid>
	
		<inkscape:grid  color="#ff5480" type="xygrid" empopacity="0.99215686" empcolor="#faa243" opacity="1" spacingy="80px" spacingx="80px" enabled="true" visible="true" dotted="false" empspacing="1" id="grid3068" snapvisiblegridlinesonly="true">
		</inkscape:grid>
	<sodipodi:guide  position="-4.1887524,33.044602" orientation="1,0" id="guide4198"></sodipodi:guide>
	<sodipodi:guide  position="13.031674,28.390433" orientation="1,0" id="guide4200"></sodipodi:guide>
	<sodipodi:guide  position="76.613272,46.681922" orientation="0,1" id="guide4202"></sodipodi:guide>
	<sodipodi:guide  position="71.670481,57.665904" orientation="0,1" id="guide4204"></sodipodi:guide>
</sodipodi:namedview>
<path id="path4208" sodipodi:nodetypes="ssssssss" inkscape:connector-curvature="0" fill="#CCCCCC" stroke="#000000" stroke-linecap="round" stroke-linejoin="round" d="
	M107.401,46.29c0.657-2.284,3.905-3.297,6.281-3.378c1.328-0.045,2.661,0.737,3.63,1.646c1.333,1.251,2.553,3.014,2.58,4.842
	c0.016,1.073-0.708,2.092-1.432,2.884c-0.947,1.035-2.197,2.022-3.589,2.199c-1.176,0.149-2.475-0.301-3.399-1.042
	C109.33,51.727,106.644,48.926,107.401,46.29L107.401,46.29z"/>
<path id="path4206" sodipodi:nodetypes="ssssssss" inkscape:connector-curvature="0" fill="#CCCCCC" stroke="#000000" stroke-linecap="round" stroke-linejoin="round" d="
	M183.401,46.29c0.657-2.284,3.905-3.297,6.281-3.378c1.328-0.045,2.661,0.737,3.63,1.646c1.333,1.251,2.553,3.014,2.58,4.842
	c0.016,1.073-0.708,2.092-1.432,2.884c-0.947,1.035-2.197,2.022-3.589,2.199c-1.176,0.149-2.475-0.301-3.399-1.042
	C185.33,51.727,182.644,48.926,183.401,46.29L183.401,46.29z"/>
<path id="path3932" sodipodi:nodetypes="ccccc" inkscape:connector-curvature="0" fill="#1A1A1A" stroke="#000000" d="
	M683.316,43.653l-1.927,28.966l-6.029-0.579l4.599-28.686L683.316,43.653z"/>
<path id="path3934" sodipodi:nodetypes="csccc" inkscape:connector-curvature="0" fill="#4D4D4D" stroke="#000000" stroke-width="0.8665" d="
	M674.295,64.641c-0.785-0.174-11.22,3.73-9.11,5.856c5.018,5.057,23.763,9.849,23.763,9.849c6.587-10.244-2.994-11.393-8.471-12.554
	L674.295,64.641z"/>
<path id="path3936" sodipodi:nodetypes="sssss" inkscape:connector-curvature="0" fill="#ECECEC" stroke="#000000" d="
	M677.457,63.68c-1.251-0.373-3.545,1.734-1.707,2.1c1.917,0.383,5.217,3.186,6.44,3.157c2.229-0.052,0.797-1.94,1.053-2.284
	C684.647,64.763,677.771,63.773,677.457,63.68z"/>
<path id="path3928" sodipodi:nodetypes="ssssssss" inkscape:connector-curvature="0" fill="#CCCCCC" stroke="#000000" stroke-linecap="round" stroke-linejoin="round" d="
	M679.777,44.996c-1.68,1.683-0.99,5.014,0.092,7.131c0.604,1.184,1.935,1.971,3.199,2.377c1.74,0.56,3.873,0.771,5.485-0.092
	c0.946-0.507,1.486-1.633,1.828-2.65c0.446-1.33,0.703-2.902,0.183-4.205c-0.439-1.102-1.463-2.02-2.56-2.469
	C685.467,44.047,681.715,43.056,679.777,44.996z"/>
<path id="path3130" sodipodi:nodetypes="ccccc" inkscape:connector-curvature="0" fill="#1A1A1A" stroke="#000000" d="
	M685.282,45.41l-10.2,27.18l-5.605-2.295l12.677-26.14L685.282,45.41z"/>
<path id="path3138" sodipodi:nodetypes="sssssss" inkscape:connector-curvature="0" fill="#1A1A1A" stroke="#000000" d="
	M679.248,38.76c-4.424,0.95-9.062,5.187-9.508,9.69c-0.361,3.659,2.718,7.646,6.034,9.233c3.065,1.468,7.43,1.037,10.147-1.006
	c1.967-1.479,2.793-4.395,2.742-6.855c-0.068-3.273-1.65-6.703-4.022-8.959C683.243,39.533,681.135,38.355,679.248,38.76z"/>
<path id="path3134" sodipodi:nodetypes="csssssssc" inkscape:connector-curvature="0" fill="#1A1A1A" stroke="#000000" d="
	M695.5,19.289c-2.701-5.823-19.758-15.526-26.133-16.273c-6.092-0.714-4.493,12.186-4.857,12.16
	c-0.503-0.037-5.262,10.791-2.377,16.455c2.379,4.671,7.861,7.377,12.798,9.142c3.911,1.397,8.475,2.08,12.433,0.822
	c3.365-1.069,6.719-3.481,8.228-6.673C697.818,30.21,697.692,24.016,695.5,19.289L695.5,19.289z"/>
<path id="path3126" sodipodi:nodetypes="ccccc" inkscape:connector-curvature="0" fill="#4D4D4D" stroke="#000000" stroke-width="0.8665" d="
	M668.219,71.15c-0.792,0.137-6.28,5.872-6.221,8.866c7.123,0.058,25.723,0.138,25.723,0.138c2.227-11.974-7.078-9.417-12.588-8.422
	L668.219,71.15z"/>
<path id="path3128" sodipodi:nodetypes="sssss" inkscape:connector-curvature="0" fill="#ECECEC" stroke="#000000" d="
	M669.898,68.215c-1.293,0.18-2.507,3.048-0.683,2.619c1.902-0.447,6.067,0.736,7.169,0.203c2.008-0.971-0.079-2.098,0.011-2.516
	C676.891,66.22,670.223,68.17,669.898,68.215z"/>
<path id="path3132" sodipodi:nodetypes="ssssssss" inkscape:connector-curvature="0" fill="#FFFFFF" stroke="#000000" stroke-linecap="round" stroke-linejoin="round" d="
	M669.051,44.246c-1.679,1.683-0.989,5.014,0.092,7.131c0.604,1.184,1.935,1.971,3.199,2.377c1.741,0.561,3.873,0.772,5.485-0.092
	c0.946-0.506,1.487-1.633,1.828-2.65c0.446-1.33,0.704-2.902,0.183-4.205c-0.439-1.102-1.463-2.02-2.56-2.469
	C674.741,43.297,670.989,42.306,669.051,44.246z"/>
<path id="path3136" sodipodi:nodetypes="sssssssss" inkscape:connector-curvature="0" fill="#FFFFFF" stroke="#000000" d="
	M683.615,22.762c-1.016,0.491-1.748,1.58-2.103,2.651c-0.593,1.794-0.617,3.955,0.183,5.667c0.484,1.037,1.504,1.847,2.56,2.286
	c1.917,0.796,4.372,1.318,6.217,0.366c1.021-0.528,1.565-1.806,1.828-2.925c0.427-1.819,0.435-3.988-0.548-5.577
	c-0.814-1.315-2.444-2.04-3.932-2.468C686.474,22.375,684.877,22.152,683.615,22.762L683.615,22.762z"/>
<path id="path3154" sodipodi:nodetypes="cssssssssc" inkscape:connector-curvature="0" fill="#FFFFFF" stroke="#000000" stroke-width="0.8" d="
	M695.351,23.726c0.196,0.368,0.338,1.185,0.406,1.988c0.114,1.346,0.12,2.967-0.035,4.251c-0.094,0.777-0.29,1.385-0.494,1.714
	c-0.37,0.597-0.845,0.988-1.201,0.274c-0.197-0.396-0.303-1.354-0.353-2.194c-0.083-1.364-0.084-2.992,0.105-4.183
	c0.157-0.987,0.473-1.53,0.76-1.851C694.799,23.435,695.107,23.268,695.351,23.726L695.351,23.726z"/>
<path id="path3932-7" sodipodi:nodetypes="ccccc" inkscape:connector-curvature="0" fill="#1A1A1A" stroke="#000000" d="
	M43.041,43.262l-1.927,28.967l-6.029-0.58l4.598-28.686L43.041,43.262z"/>
<path id="path3934-4" sodipodi:nodetypes="ccccc" inkscape:connector-curvature="0" fill="#4D4D4D" stroke="#000000" stroke-width="0.8665" d="
	M34.782,70.372c-0.792,0.136-6.28,5.871-6.221,8.865c7.124,0.058,25.722,0.138,25.722,0.138c2.227-11.973-7.078-9.416-12.587-8.421
	L34.782,70.372z"/>
<path id="path3936-9" sodipodi:nodetypes="sssss" inkscape:connector-curvature="0" fill="#ECECEC" stroke="#000000" d="
	M35.107,68.018c-1.293,0.179-2.507,3.047-0.684,2.618c1.903-0.447,6.067,0.736,7.169,0.203c2.007-0.972-0.079-2.097,0.011-2.517
	C42.099,66.021,35.431,67.973,35.107,68.018z"/>
<path id="path3928-8" sodipodi:nodetypes="ssssssss" inkscape:connector-curvature="0" fill="#FFFFFF" stroke="#000000" stroke-linecap="round" stroke-linejoin="round" d="
	M38.094,45.316c-1.679,1.682-0.99,5.014,0.091,7.13c0.604,1.183,1.935,1.97,3.2,2.377c1.741,0.56,3.873,0.772,5.485-0.091
	c0.946-0.508,1.487-1.634,1.829-2.652c0.446-1.33,0.703-2.901,0.183-4.205c-0.439-1.1-1.463-2.018-2.56-2.468
	C43.784,44.367,40.032,43.375,38.094,45.316L38.094,45.316z"/>
<path id="path3130-4" sodipodi:nodetypes="ccccc" inkscape:connector-curvature="0" fill="#1A1A1A" stroke="#000000" d="
	M41.041,43.262l-1.927,28.967l-6.029-0.58l4.598-28.686L41.041,43.262z"/>
<path id="path3138-5" sodipodi:nodetypes="sssssss" inkscape:connector-curvature="0" fill="#1A1A1A" stroke="#000000" d="
	M38.973,38.368c-4.424,0.951-9.062,5.187-9.508,9.69c-0.361,3.658,2.718,7.645,6.034,9.232c3.065,1.469,7.43,1.037,10.147-1.005
	c1.967-1.479,2.793-4.396,2.742-6.856c-0.068-3.273-1.65-6.703-4.022-8.959C42.968,39.141,40.859,37.963,38.973,38.368z"/>
<path id="path3134-6" sodipodi:nodetypes="csssssssc" inkscape:connector-curvature="0" fill="#1A1A1A" stroke="#000000" d="
	M55.224,18.896C52.523,13.074,35.466,3.371,29.091,2.623C23,1.909,24.599,14.809,24.234,14.783
	c-0.502-0.036-5.262,10.792-2.377,16.455c2.379,4.671,7.861,7.377,12.798,9.142c3.911,1.398,8.475,2.081,12.433,0.823
	c3.365-1.069,6.718-3.481,8.228-6.673C57.543,29.818,57.417,23.624,55.224,18.896z"/>
<path id="path3126-9" sodipodi:nodetypes="csccc" inkscape:connector-curvature="0" fill="#4D4D4D" stroke="#000000" stroke-width="0.8665" d="
	M32.782,70.372c-0.792,0.136-9.214,8.79-6.221,8.865c6.673,0.167,25.722,0.138,25.722,0.138c2.227-11.973-7.078-9.416-12.587-8.421
	L32.782,70.372z"/>
<path id="path3128-7" sodipodi:nodetypes="sssss" inkscape:connector-curvature="0" fill="#ECECEC" stroke="#000000" d="
	M33.107,68.018c-1.293,0.179-2.507,3.047-0.684,2.618c1.903-0.447,6.067,0.736,7.169,0.203c2.007-0.972-0.079-2.097,0.011-2.517
	C40.099,66.021,33.431,67.973,33.107,68.018z"/>
<path id="path3132-8" sodipodi:nodetypes="ssssssss" inkscape:connector-curvature="0" fill="#FFFFFF" stroke="#000000" stroke-linecap="round" stroke-linejoin="round" d="
	M30.094,45.316c-1.679,1.682-0.99,5.014,0.091,7.13c0.604,1.183,1.935,1.97,3.2,2.377c1.741,0.56,3.873,0.772,5.485-0.091
	c0.946-0.508,1.487-1.634,1.829-2.652c0.446-1.33,0.703-2.901,0.183-4.205c-0.439-1.1-1.463-2.018-2.56-2.468
	C35.784,44.367,32.032,43.375,30.094,45.316L30.094,45.316z"/>
<path id="path3136-5" sodipodi:nodetypes="sssssssss" inkscape:connector-curvature="0" fill="#FFFFFF" stroke="#000000" d="
	M43.34,22.37c-1.016,0.491-1.749,1.581-2.103,2.651c-0.593,1.795-0.617,3.955,0.183,5.668c0.484,1.036,1.503,1.846,2.56,2.285
	c1.917,0.796,4.372,1.318,6.217,0.366c1.021-0.528,1.565-1.806,1.828-2.925c0.426-1.818,0.434-3.988-0.548-5.576
	c-0.814-1.316-2.444-2.041-3.931-2.469C46.198,21.982,44.602,21.761,43.34,22.37z"/>
<path id="path3154-7" sodipodi:nodetypes="cssssssssc" inkscape:connector-curvature="0" fill="#FFFFFF" stroke="#000000" stroke-width="0.8" d="
	M55.075,23.333c0.196,0.368,0.338,1.185,0.406,1.989c0.115,1.346,0.119,2.966-0.035,4.251c-0.094,0.777-0.291,1.385-0.495,1.714
	c-0.37,0.597-0.845,0.989-1.201,0.274c-0.197-0.396-0.303-1.354-0.354-2.194c-0.082-1.364-0.084-2.992,0.106-4.183
	c0.157-0.987,0.472-1.53,0.759-1.852C54.523,23.042,54.832,22.876,55.075,23.333L55.075,23.333z"/>
<path id="path3989" sodipodi:nodetypes="ccccc" inkscape:connector-curvature="0" fill="#1A1A1A" stroke="#000000" stroke-width="0.7855" d="
	M131.745,52.541l1.535,10.067l-5.099-3.618c0.486-8.82-0.711-2.731-4.416-7.261C128.08,52.045,128.459,48.4,131.745,52.541z"/>
<path id="path3991" sodipodi:nodetypes="csscc" inkscape:connector-curvature="0" fill="#4D4D4D" stroke="#000000" stroke-width="0.8665" d="
	M127.389,60.012c-0.72-0.357-13.326,0.055-11.071,2.025c4.842,4.23,18.728,16.033,20.674,15.305
	c11.407-4.265-0.148-11.779-5.182-14.23L127.389,60.012z"/>
<path id="path3993" sodipodi:nodetypes="sssss" inkscape:connector-curvature="0" fill="#ECECEC" stroke="#000000" d="
	M128.804,59.074c-1.131-0.652-3.85,0.867-2.146,1.647c1.777,0.815,4.339,4.305,5.536,4.56c2.181,0.466,1.225-1.703,1.553-1.979
	C135.549,61.789,129.087,59.236,128.804,59.074z"/>
<path id="path3995" sodipodi:nodetypes="ssssssss" inkscape:connector-curvature="0" fill="#FFFFFF" stroke="#000000" stroke-linecap="round" stroke-linejoin="round" d="
	M111.385,43.568c-1.679,1.682-0.99,5.014,0.091,7.13c0.604,1.183,1.935,1.97,3.2,2.377c1.741,0.56,3.873,0.772,5.485-0.091
	c0.946-0.508,1.487-1.634,1.829-2.652c0.446-1.33,0.703-2.901,0.183-4.205c-0.439-1.1-1.463-2.018-2.56-2.468
	C117.075,42.619,113.322,41.627,111.385,43.568z"/>
<path id="path3997" sodipodi:nodetypes="ccccc" inkscape:connector-curvature="0" fill="#1A1A1A" stroke="#000000" d="
	M122.776,45.998c-6.869,6.977-13.933,13.842-19.324,21.664l-3.988-7.537c8.466-5.91,13.958-9.729,20.847-16.428L122.776,45.998z"/>
<path id="path3999" sodipodi:nodetypes="sssssss" inkscape:connector-curvature="0" fill="#1A1A1A" stroke="#000000" d="
	M118.973,38.368c-4.424,0.951-9.062,5.187-9.508,9.69c-0.361,3.658,2.718,7.645,6.034,9.232c3.065,1.469,7.43,1.037,10.147-1.005
	c1.967-1.479,2.793-4.396,2.742-6.856c-0.068-3.273-1.65-6.703-4.022-8.959C122.968,39.141,120.859,37.963,118.973,38.368z"/>
<path id="path4001" sodipodi:nodetypes="csssssssc" inkscape:connector-curvature="0" fill="#1A1A1A" stroke="#000000" d="
	M135.224,18.896c-2.701-5.823-19.758-15.526-26.133-16.273c-6.091-0.714-4.493,12.186-4.857,12.16
	c-0.502-0.036-5.262,10.792-2.377,16.455c2.379,4.671,7.861,7.377,12.798,9.142c3.911,1.398,8.475,2.081,12.433,0.823
	c3.365-1.069,6.718-3.481,8.228-6.673C137.543,29.818,137.417,23.624,135.224,18.896z"/>
<path id="path4003" sodipodi:nodetypes="cssscc" inkscape:connector-curvature="0" fill="#4D4D4D" stroke="#000000" stroke-width="0.8665" d="
	M100.81,61.646c-0.724-0.351-11.019,0.709-10.216,3.595c2.214,7.967,11.811,13.546,16.836,14.081
	c1.59,0.169,9.157,0.372,9.191-0.504c0.37-9.739-6.867-8.79-10.525-12.678L100.81,61.646z"/>
<path id="path4005" sodipodi:nodetypes="csscc" inkscape:connector-curvature="0" fill="#ECECEC" stroke="#000000" d="
	M99.988,61.534c1.728,0.914,4.087,4.544,5.268,4.866c2.151,0.588,1.319-1.632,1.663-1.889c1.886-1.408-3.492-5.18-3.776-5.02
	C100.099,57.662,97.593,59.898,99.988,61.534z"/>
<path id="path4007" sodipodi:nodetypes="ssssssss" inkscape:connector-curvature="0" fill="#FFFFFF" stroke="#000000" stroke-linecap="round" stroke-linejoin="round" d="
	M119.385,44.665c-1.679,1.683-0.99,5.014,0.091,7.13c0.604,1.184,1.935,1.971,3.2,2.377c1.741,0.561,3.873,0.772,5.485-0.092
	c0.946-0.506,1.487-1.633,1.829-2.65c0.446-1.33,0.703-2.902,0.183-4.205c-0.439-1.101-1.463-2.019-2.56-2.469
	C125.075,43.716,121.322,42.724,119.385,44.665L119.385,44.665z"/>
<path id="path4009" sodipodi:nodetypes="sssssssss" inkscape:connector-curvature="0" fill="#FFFFFF" stroke="#000000" d="
	M123.34,22.37c-1.016,0.491-1.749,1.581-2.103,2.651c-0.593,1.795-0.617,3.955,0.183,5.668c0.484,1.036,1.503,1.846,2.56,2.285
	c1.917,0.796,4.372,1.318,6.217,0.366c1.021-0.528,1.565-1.806,1.828-2.925c0.426-1.818,0.434-3.988-0.548-5.576
	c-0.814-1.316-2.444-2.041-3.931-2.469C126.198,21.982,124.602,21.761,123.34,22.37z"/>
<path id="path4011" sodipodi:nodetypes="cssssssssc" inkscape:connector-curvature="0" fill="#FFFFFF" stroke="#000000" stroke-width="0.8" d="
	M135.075,23.333c0.196,0.368,0.338,1.185,0.406,1.989c0.115,1.346,0.119,2.966-0.035,4.251c-0.094,0.777-0.291,1.385-0.495,1.714
	c-0.37,0.597-0.845,0.989-1.201,0.274c-0.197-0.396-0.303-1.354-0.354-2.194c-0.082-1.364-0.084-2.992,0.106-4.183
	c0.157-0.987,0.472-1.53,0.759-1.852C134.523,23.042,134.832,22.876,135.075,23.333L135.075,23.333z"/>
<path id="path4035" sodipodi:nodetypes="ccccc" inkscape:connector-curvature="0" fill="#1A1A1A" stroke="#000000" d="
	M204.512,49.266c8.035-0.292,13.922,2.197,18.229,6.729l-5.074,4.558c-3.737-5.244-6.333-7.986-13.78-6.682L204.512,49.266z"/>
<path id="path4037" sodipodi:nodetypes="csscc" inkscape:connector-curvature="0" fill="#4D4D4D" stroke="#000000" stroke-width="0.8665" d="
	M217.926,61.198c-1.729,0.4-4.07,10.231,0.284,9.88c8.23-0.664,20.716-12.312,20.743-14.265c0.149-10.542-11.148-3.57-15.126,0.733
	L217.926,61.198z"/>
<path id="path4039" sodipodi:nodetypes="cssssc" inkscape:connector-curvature="0" fill="#ECECEC" stroke="#000000" d="
	M216.857,59.906c-1.025,0.809-0.54,3.403,0.817,2.111c1.416-1.348,6.306-3.83,6.987-4.848c1.241-1.854-1.499-1.609-1.633-2.018
	c-0.737-2.234-6.742,3.729-6.583,4.014L216.857,59.906z"/>
<path id="path4043" sodipodi:nodetypes="ccccc" inkscape:connector-curvature="0" fill="#1A1A1A" stroke="#000000" d="
	M200.922,49.93c-7.591,5.324-12.828,12.331-23.847,15.208l1.85-8.874c7.046-0.985,12.94-5.156,19.985-9.039L200.922,49.93z"/>
<path id="path4045" sodipodi:nodetypes="sssssss" inkscape:connector-curvature="0" fill="#1A1A1A" stroke="#000000" d="
	M198.973,38.368c-4.424,0.951-9.062,5.187-9.508,9.69c-0.361,3.658,2.718,7.645,6.034,9.232c3.065,1.469,7.43,1.037,10.147-1.005
	c1.967-1.479,2.793-4.396,2.742-6.856c-0.068-3.273-1.65-6.703-4.022-8.959C202.968,39.141,200.859,37.963,198.973,38.368z"/>
<path id="path4047" sodipodi:nodetypes="csssssssc" inkscape:connector-curvature="0" fill="#1A1A1A" stroke="#000000" d="
	M215.224,18.896c-2.701-5.823-19.758-15.526-26.133-16.273c-6.091-0.714-4.493,12.186-4.857,12.16
	c-0.502-0.036-5.262,10.792-2.377,16.455c2.379,4.671,7.861,7.377,12.798,9.142c3.911,1.398,8.475,2.081,12.433,0.823
	c3.365-1.069,6.718-3.481,8.228-6.673C217.543,29.818,217.417,23.624,215.224,18.896z"/>
<path id="path4049" sodipodi:nodetypes="ccccc" inkscape:connector-curvature="0" fill="#4D4D4D" stroke="#000000" stroke-width="0.8665" d="
	M178.221,62.071c0.137-0.792,2.249-4.86-0.592-5.808c-8.439-1.354-17.15,17.51-14.425,21.165
	c14.568,6.757,14.141-3.119,12.151-9.038L178.221,62.071z"/>
<path id="path4051" sodipodi:nodetypes="sssss" inkscape:connector-curvature="0" fill="#ECECEC" stroke="#000000" stroke-width="1.1315" d="
	M180.643,57.918c0.197-1.55-2.388-3.898-2.486-1.654c-0.102,2.342-2.543,6.75-2.321,8.195c0.405,2.636,2.175,0.604,2.579,0.846
	C180.63,66.637,180.593,58.307,180.643,57.918z"/>
<path id="path4053" sodipodi:nodetypes="ssssssss" inkscape:connector-curvature="0" fill="#FFFFFF" stroke="#000000" stroke-linecap="round" stroke-linejoin="round" d="
	M210.645,42.322c-1.679,1.683-0.99,5.014,0.091,7.131c0.604,1.184,1.935,1.97,3.2,2.377c1.741,0.56,3.873,0.771,5.485-0.092
	c0.946-0.507,1.487-1.633,1.829-2.65c0.446-1.33,0.703-2.902,0.183-4.205c-0.439-1.102-1.463-2.02-2.56-2.469
	C216.334,41.373,212.583,40.381,210.645,42.322z"/>
<path id="path4055" sodipodi:nodetypes="sssssssss" inkscape:connector-curvature="0" fill="#FFFFFF" stroke="#000000" d="
	M203.34,22.37c-1.016,0.491-1.749,1.581-2.103,2.651c-0.593,1.795-0.617,3.955,0.183,5.668c0.484,1.036,1.503,1.846,2.56,2.285
	c1.917,0.796,4.372,1.318,6.217,0.366c1.021-0.528,1.565-1.806,1.828-2.925c0.426-1.818,0.434-3.988-0.549-5.576
	c-0.814-1.316-2.444-2.041-3.931-2.469C206.198,21.982,204.602,21.761,203.34,22.37z"/>
<path id="path4057" sodipodi:nodetypes="cssssssssc" inkscape:connector-curvature="0" fill="#FFFFFF" stroke="#000000" stroke-width="0.8" d="
	M215.075,23.333c0.196,0.368,0.338,1.185,0.406,1.989c0.115,1.346,0.119,2.966-0.035,4.251c-0.094,0.777-0.291,1.385-0.495,1.714
	c-0.37,0.597-0.845,0.989-1.201,0.274c-0.197-0.396-0.303-1.354-0.354-2.194c-0.082-1.364-0.084-2.992,0.106-4.183
	c0.157-0.987,0.472-1.53,0.759-1.852C214.523,23.042,214.832,22.876,215.075,23.333L215.075,23.333z"/>
<path id="path4059" sodipodi:nodetypes="ccccc" inkscape:connector-curvature="0" fill="#1A1A1A" stroke="#000000" d="
	M282.088,50.354c6.025,7.659,12.583,7.729,13.358,17.916l-4.991,3.431c-0.771-10.41-4.422-9.302-9.897-17.36L282.088,50.354z"/>
<path id="path4061" sodipodi:nodetypes="csscc" inkscape:connector-curvature="0" fill="#4D4D4D" stroke="#000000" stroke-width="0.8665" d="
	M292.33,69.094c-0.658,0.461-4.809,11.062-1.84,10.673c6.945-0.913,22.642-8.63,23.318-10.858
	c3.536-11.654-10.421-5.493-14.978-2.24L292.33,69.094z"/>
<path id="path4063" sodipodi:nodetypes="sssss" inkscape:connector-curvature="0" fill="#ECECEC" stroke="#000000" d="
	M290.403,69.811c-1.093,0.713-0.967,3.825,0.5,2.659c1.53-1.216,5.801-1.923,6.57-2.876c1.401-1.734-0.966-1.862-1.064-2.279
	C295.875,65.021,290.677,69.631,290.403,69.811z"/>
<path id="path4065" sodipodi:nodetypes="ssssssss" inkscape:connector-curvature="0" fill="#CCCCCC" stroke="#000000" stroke-linecap="round" stroke-linejoin="round" d="
	M266.094,45.316c-1.679,1.682-0.99,5.014,0.091,7.13c0.604,1.183,1.935,1.97,3.2,2.377c1.741,0.56,3.873,0.772,5.485-0.091
	c0.946-0.508,1.487-1.634,1.829-2.652c0.446-1.33,0.703-2.901,0.183-4.205c-0.439-1.1-1.463-2.018-2.56-2.468
	C271.784,44.367,268.032,43.375,266.094,45.316L266.094,45.316z"/>
<path id="path4067" sodipodi:nodetypes="ccccc" inkscape:connector-curvature="0" fill="#1A1A1A" stroke="#000000" d="
	M282.578,55.656c-6.412,3.738-11.516,10.875-19.89,9.511l-1.161-6.931c6.489,2.363,12.979-3.223,19.468-5.557L282.578,55.656z"/>
<path id="path4069" sodipodi:nodetypes="sssssss" inkscape:connector-curvature="0" fill="#1A1A1A" stroke="#000000" d="
	M278.973,38.368c-4.424,0.951-9.062,5.187-9.508,9.69c-0.361,3.658,2.718,7.645,6.034,9.232c3.066,1.469,7.43,1.037,10.147-1.005
	c1.967-1.479,2.793-4.396,2.742-6.856c-0.068-3.273-1.65-6.703-4.022-8.959C282.968,39.141,280.859,37.963,278.973,38.368z"/>
<path id="path4071" sodipodi:nodetypes="csssssssc" inkscape:connector-curvature="0" fill="#1A1A1A" stroke="#000000" d="
	M295.224,18.896c-2.701-5.823-19.758-15.526-26.133-16.273c-6.091-0.714-4.493,12.186-4.857,12.16
	c-0.502-0.036-5.262,10.792-2.377,16.455c2.379,4.671,7.861,7.377,12.798,9.142c3.911,1.398,8.475,2.081,12.433,0.823
	c3.365-1.069,6.718-3.481,8.228-6.673C297.543,29.818,297.417,23.624,295.224,18.896z"/>
<path id="path4073" sodipodi:nodetypes="csccc" inkscape:connector-curvature="0" fill="#4D4D4D" stroke="#000000" stroke-width="0.8665" d="
	M263.114,65.105c0.434-0.678,1.696-8.587-1.288-8.842c-9.417-0.805-21.058,15.391-18.918,17.428
	c4.62,8.111,11.374-1.494,15.116-3.871L263.114,65.105z"/>
<path id="path4075" sodipodi:nodetypes="sssss" inkscape:connector-curvature="0" fill="#ECECEC" stroke="#000000" d="
	M265.111,58.371c0.535-1.191-1.902-2.087-2.508-0.314c-0.631,1.851-3.617,6.975-3.75,8.191c-0.243,2.217,1.819,1.047,2.126,1.346
	C262.667,69.234,264.977,58.669,265.111,58.371z"/>
<path id="path4077" sodipodi:nodetypes="ssssssss" inkscape:connector-curvature="0" fill="#FFFFFF" stroke="#000000" stroke-linecap="round" stroke-linejoin="round" d="
	M284.961,44.221c-1.679,1.684-0.99,5.015,0.091,7.131c0.604,1.184,1.935,1.971,3.2,2.377c1.741,0.561,3.874,0.772,5.485-0.092
	c0.946-0.506,1.487-1.633,1.829-2.65c0.446-1.33,0.703-2.902,0.183-4.205c-0.439-1.102-1.463-2.019-2.56-2.469
	C290.651,43.272,286.899,42.28,284.961,44.221L284.961,44.221z"/>
<path id="path4079" sodipodi:nodetypes="sssssssss" inkscape:connector-curvature="0" fill="#FFFFFF" stroke="#000000" d="
	M283.34,22.37c-1.016,0.491-1.749,1.581-2.103,2.651c-0.593,1.795-0.617,3.955,0.183,5.668c0.484,1.036,1.503,1.846,2.56,2.285
	c1.917,0.796,4.372,1.318,6.217,0.366c1.021-0.528,1.565-1.806,1.828-2.925c0.426-1.818,0.434-3.988-0.549-5.576
	c-0.814-1.316-2.444-2.041-3.931-2.469C286.198,21.982,284.602,21.761,283.34,22.37z"/>
<path id="path4081" sodipodi:nodetypes="cssssssssc" inkscape:connector-curvature="0" fill="#FFFFFF" stroke="#000000" stroke-width="0.8" d="
	M295.075,23.333c0.196,0.368,0.338,1.185,0.406,1.989c0.114,1.346,0.119,2.966-0.035,4.251c-0.094,0.777-0.291,1.385-0.495,1.714
	c-0.37,0.597-0.845,0.989-1.201,0.274c-0.197-0.396-0.303-1.354-0.354-2.194c-0.082-1.364-0.084-2.992,0.106-4.183
	c0.157-0.987,0.472-1.53,0.759-1.852C294.523,23.042,294.832,22.876,295.075,23.333z"/>
<path id="path4083" sodipodi:nodetypes="ccccc" inkscape:connector-curvature="0" fill="#1A1A1A" stroke="#000000" d="
	M362.823,46.572l-13.194,25.859l-5.312-2.91l15.538-24.548L362.823,46.572z"/>
<path id="path4085" sodipodi:nodetypes="ccccc" inkscape:connector-curvature="0" fill="#4D4D4D" stroke="#000000" stroke-width="0.8665" d="
	M344.782,70.372c-0.792,0.136-6.28,5.871-6.221,8.865c7.124,0.058,25.722,0.138,25.722,0.138c2.228-11.973-7.077-9.416-12.587-8.421
	L344.782,70.372z"/>
<path id="path4087" sodipodi:nodetypes="sssss" inkscape:connector-curvature="0" fill="#ECECEC" stroke="#000000" d="
	M345.107,68.018c-1.293,0.179-2.507,3.047-0.684,2.618c1.903-0.447,6.067,0.736,7.169,0.203c2.007-0.972-0.079-2.097,0.011-2.517
	C352.099,66.021,345.431,67.973,345.107,68.018z"/>
<path id="path4089" sodipodi:nodetypes="ssssssss" inkscape:connector-curvature="0" fill="#CCCCCC" stroke="#000000" stroke-linecap="round" stroke-linejoin="round" d="
	M360.094,45.316c-1.679,1.682-0.99,5.014,0.091,7.13c0.604,1.183,1.935,1.97,3.2,2.377c1.74,0.56,3.873,0.772,5.484-0.091
	c0.947-0.508,1.488-1.634,1.829-2.652c0.446-1.33,0.703-2.901,0.183-4.205c-0.439-1.1-1.463-2.018-2.56-2.468
	C365.783,44.367,362.031,43.375,360.094,45.316L360.094,45.316z"/>
<path id="path4091" sodipodi:nodetypes="ccccc" inkscape:connector-curvature="0" fill="#1A1A1A" stroke="#000000" d="
	M365.016,55.314c1.847,6.951-1.619,5.083-5.342,12.142l-4.342-5.805c7.559-1.391,3.937-5.474,6.531-9.104L365.016,55.314z"/>
<path id="path4093" sodipodi:nodetypes="sssssss" inkscape:connector-curvature="0" fill="#1A1A1A" stroke="#000000" d="
	M358.973,38.368c-4.424,0.951-9.062,5.187-9.508,9.69c-0.361,3.658,2.718,7.645,6.034,9.232c3.066,1.469,7.43,1.037,10.148-1.005
	c1.967-1.479,2.793-4.396,2.742-6.856c-0.068-3.273-1.65-6.703-4.022-8.959C362.968,39.141,360.859,37.963,358.973,38.368z"/>
<path id="path4095" sodipodi:nodetypes="csssssssc" inkscape:connector-curvature="0" fill="#1A1A1A" stroke="#000000" d="
	M375.225,18.896c-2.701-5.823-19.758-15.526-26.133-16.273c-6.091-0.714-4.493,12.186-4.857,12.16
	c-0.502-0.036-5.262,10.792-2.377,16.455c2.379,4.671,7.861,7.377,12.798,9.142c3.911,1.398,8.475,2.081,12.433,0.823
	c3.365-1.069,6.718-3.481,8.228-6.673C377.543,29.818,377.416,23.624,375.225,18.896z"/>
<path id="path4097" sodipodi:nodetypes="cscscc" inkscape:connector-curvature="0" fill="#4D4D4D" stroke="#000000" stroke-width="0.8665" d="
	M357.234,60.574c-0.597-0.538-11.598-2.298-10.814,0.592c1.864,6.876,15.301,17.999,15.301,17.999
	c2.372,0.168,7.273,0.428,7.891-0.728c3.173-5.938-1.681-9.55-8.561-12.068L357.234,60.574z"/>
<path id="path4099" sodipodi:nodetypes="sssss" inkscape:connector-curvature="0" fill="#ECECEC" stroke="#000000" d="
	M357.482,60.217c-1.05-0.775-3.923,0.43-2.318,1.396c1.674,1.01,3.827,4.766,4.988,5.153c2.115,0.707,1.408-1.556,1.766-1.793
	C363.879,63.672,357.745,60.411,357.482,60.217z"/>
<path id="path4101" sodipodi:nodetypes="ssssssss" inkscape:connector-curvature="0" fill="#FFFFFF" stroke="#000000" stroke-linecap="round" stroke-linejoin="round" d="
	M343.319,45.123c-1.68,1.682-0.99,5.014,0.091,7.13c0.604,1.183,1.935,1.97,3.2,2.377c1.741,0.56,3.873,0.772,5.485-0.092
	c0.946-0.507,1.487-1.634,1.829-2.651c0.446-1.33,0.703-2.902,0.183-4.205c-0.439-1.1-1.463-2.018-2.56-2.468
	C349.009,44.174,345.257,43.182,343.319,45.123L343.319,45.123z"/>
<path id="path4103" sodipodi:nodetypes="sssssssss" inkscape:connector-curvature="0" fill="#FFFFFF" stroke="#000000" d="
	M363.34,22.37c-1.016,0.491-1.749,1.581-2.103,2.651c-0.593,1.795-0.617,3.955,0.183,5.668c0.484,1.036,1.504,1.846,2.56,2.285
	c1.917,0.796,4.372,1.318,6.217,0.366c1.021-0.528,1.565-1.806,1.828-2.925c0.427-1.818,0.435-3.988-0.549-5.576
	c-0.813-1.316-2.444-2.041-3.931-2.469C366.198,21.982,364.602,21.761,363.34,22.37z"/>
<path id="path4105" sodipodi:nodetypes="cssssssssc" inkscape:connector-curvature="0" fill="#FFFFFF" stroke="#000000" stroke-width="0.8" d="
	M375.075,23.333c0.196,0.368,0.338,1.185,0.406,1.989c0.114,1.346,0.119,2.966-0.035,4.251c-0.094,0.777-0.29,1.385-0.495,1.714
	c-0.369,0.597-0.844,0.989-1.2,0.274c-0.197-0.396-0.303-1.354-0.354-2.194c-0.082-1.364-0.084-2.992,0.106-4.183
	c0.157-0.987,0.472-1.53,0.76-1.852C374.523,23.042,374.832,22.876,375.075,23.333z"/>
<path id="path4107" sodipodi:nodetypes="ccccc" inkscape:connector-curvature="0" fill="#1A1A1A" stroke="#000000" d="
	M432.903,52.291c-2.103,4.937-9.19,8.464-14.126,11.761l-3.104-5.201c6.997-1.87,10.459-5.509,14.493-8.861L432.903,52.291z"/>
<path id="path4109" sodipodi:nodetypes="ccccscc" inkscape:connector-curvature="0" fill="#4D4D4D" stroke="#000000" stroke-width="0.8665" d="
	M415.636,60.077c-0.678-0.431-4.757,0.251-6.723,2.509c-2.631,5.748,4.472,15.229,11.191,17.127c2.4-0.012,8.946,0.747,10.163-0.506
	c4.216-3.455,1.379-9.326-6.847-10.255c-1.489-0.168-2.064-2.343-3.052-3.802L415.636,60.077z"/>
<path id="path4111" sodipodi:nodetypes="sssss" inkscape:connector-curvature="0" fill="#ECECEC" stroke="#000000" d="
	M417.018,58.007c-1.073-0.742-3.907,0.551-2.273,1.468c1.705,0.957,3.974,4.645,5.146,4.996c2.136,0.641,1.36-1.599,1.71-1.847
	C423.52,61.263,417.287,58.193,417.018,58.007z"/>
<path id="path4113" sodipodi:nodetypes="ssssssss" inkscape:connector-curvature="0" fill="#CCCCCC" stroke="#000000" stroke-linecap="round" stroke-linejoin="round" d="
	M449.527,42.354c-1.68,1.682-0.99,5.014,0.092,7.13c0.604,1.183,1.935,1.97,3.199,2.377c1.741,0.56,3.873,0.772,5.485-0.092
	c0.946-0.507,1.486-1.633,1.828-2.651c0.446-1.33,0.703-2.902,0.183-4.205c-0.439-1.1-1.463-2.018-2.56-2.468
	C455.218,41.404,451.465,40.412,449.527,42.354L449.527,42.354z"/>
<path id="path4115" sodipodi:nodetypes="csccc" inkscape:connector-curvature="0" fill="#1A1A1A" stroke="#000000" d="
	M442.039,47.127c-0.041,0.051,9.663,4.362,11.483,7.547c1.001,1.754-3.708,4.789-3.708,4.789l-9.82-9.656L442.039,47.127z"/>
<path id="path4117" sodipodi:nodetypes="sssssss" inkscape:connector-curvature="0" fill="#1A1A1A" stroke="#000000" d="
	M438.973,38.368c-4.425,0.951-9.062,5.187-9.508,9.69c-0.361,3.658,2.718,7.645,6.033,9.232c3.066,1.469,7.431,1.037,10.147-1.005
	c1.968-1.479,2.794-4.396,2.743-6.856c-0.068-3.273-1.65-6.703-4.022-8.959C442.968,39.141,440.859,37.963,438.973,38.368z"/>
<path id="path4119" sodipodi:nodetypes="csssssssc" inkscape:connector-curvature="0" fill="#1A1A1A" stroke="#000000" d="
	M455.224,18.896c-2.7-5.823-19.758-15.526-26.133-16.273c-6.091-0.714-4.492,12.186-4.857,12.16
	c-0.502-0.036-5.262,10.792-2.376,16.455c2.379,4.671,7.861,7.377,12.798,9.142c3.911,1.398,8.475,2.081,12.433,0.823
	c3.365-1.069,6.718-3.481,8.228-6.673C457.543,29.818,457.416,23.624,455.224,18.896z"/>
<path id="path4121" sodipodi:nodetypes="csscc" inkscape:connector-curvature="0" fill="#4D4D4D" stroke="#000000" stroke-width="0.8665" d="
	M446.327,56.264c-0.699-0.396-12.375,0.638-10.431,2.916c4.266,4.996,18.006,17.361,19.811,16.407
	c9.341-4.935-3.376-13.8-4.4-14.491L446.327,56.264z"/>
<path id="path4123" sodipodi:nodetypes="sssss" inkscape:connector-curvature="0" fill="#ECECEC" stroke="#000000" d="
	M446.899,54.395c-1.194-0.527-3.734,1.275-1.957,1.869c1.854,0.619,4.775,3.814,5.993,3.939c2.219,0.229,1.035-1.826,1.332-2.135
	C453.896,56.369,447.199,54.526,446.899,54.395z"/>
<path id="path4125" sodipodi:nodetypes="ssssssss" inkscape:connector-curvature="0" fill="#FFFFFF" stroke="#000000" stroke-linecap="round" stroke-linejoin="round" d="
	M418.535,41.639c-1.68,1.682-0.99,5.014,0.091,7.131c0.604,1.183,1.935,1.97,3.2,2.377c1.74,0.559,3.873,0.771,5.484-0.092
	c0.946-0.508,1.487-1.634,1.828-2.651c0.446-1.33,0.704-2.902,0.184-4.205c-0.44-1.101-1.463-2.019-2.561-2.468
	C424.225,40.689,420.473,39.698,418.535,41.639L418.535,41.639z"/>
<path id="path4127" sodipodi:nodetypes="sssssssss" inkscape:connector-curvature="0" fill="#FFFFFF" stroke="#000000" d="
	M443.34,22.37c-1.016,0.491-1.749,1.581-2.103,2.651c-0.593,1.795-0.617,3.955,0.183,5.668c0.484,1.036,1.504,1.846,2.56,2.285
	c1.917,0.796,4.372,1.318,6.217,0.366c1.021-0.528,1.565-1.806,1.828-2.925c0.427-1.818,0.435-3.988-0.549-5.576
	c-0.813-1.316-2.444-2.041-3.931-2.469C446.198,21.982,444.602,21.761,443.34,22.37z"/>
<path id="path4129" sodipodi:nodetypes="cssssssssc" inkscape:connector-curvature="0" fill="#FFFFFF" stroke="#000000" stroke-width="0.8" d="
	M455.075,23.333c0.196,0.368,0.338,1.185,0.406,1.989c0.114,1.346,0.119,2.966-0.035,4.251c-0.094,0.777-0.29,1.385-0.495,1.714
	c-0.37,0.597-0.844,0.989-1.2,0.274c-0.197-0.396-0.303-1.354-0.354-2.194c-0.082-1.364-0.084-2.992,0.106-4.183
	c0.157-0.987,0.472-1.53,0.759-1.852C454.523,23.042,454.832,22.876,455.075,23.333z"/>
<path id="path4131" sodipodi:nodetypes="ccccc" inkscape:connector-curvature="0" fill="#1A1A1A" stroke="#000000" d="
	M513.697,56.264c-4.815,4.486-11.139,6.521-17.124,9.107l-2.395-5.564c5.418-2.198,11.351-1.818,15.778-8.966L513.697,56.264z"/>
<path id="path4133" sodipodi:nodetypes="cscscc" inkscape:connector-curvature="0" fill="#4D4D4D" stroke="#000000" stroke-width="0.8665" d="
	M496.737,59.596c-0.064-0.392,0.982-1.77-0.719-3.332c-2.964-2.723-14.846,9.918-13.747,12.76
	c-3.158,9.352,11.746,14.221,16.043,8.853c1.541-1.925-8.98-3.815-0.112-11.66L496.737,59.596z"/>
<path id="path4135" sodipodi:nodetypes="sssss" inkscape:connector-curvature="0" fill="#ECECEC" stroke="#000000" d="
	M500.206,57.973c-0.34-1.261-3.338-2.104-2.684-0.35c0.683,1.832,0.032,6.112,0.699,7.139c1.216,1.869,2.07-0.342,2.497-0.306
	C503.064,64.658,500.291,58.288,500.206,57.973z"/>
<path id="path4137" sodipodi:nodetypes="ssssssss" inkscape:connector-curvature="0" fill="#CCCCCC" stroke="#000000" stroke-linecap="round" stroke-linejoin="round" d="
	M532.385,40.284c-1.68,1.682-0.99,5.013,0.091,7.13c0.604,1.184,1.935,1.971,3.2,2.377c1.74,0.56,3.873,0.771,5.484-0.092
	c0.946-0.507,1.487-1.633,1.828-2.65c0.446-1.33,0.704-2.902,0.184-4.205c-0.44-1.102-1.463-2.02-2.561-2.469
	C538.074,39.334,534.322,38.343,532.385,40.284L532.385,40.284z"/>
<path id="path4139" sodipodi:nodetypes="ccccc" inkscape:connector-curvature="0" fill="#1A1A1A" stroke="#000000" d="
	M527.265,49.145c4.476,0.275,7.212,2.986,10.203,5.342l-2.084,5.688c-2.328-2.658-3.254-7.161-8.269-6.285L527.265,49.145z"/>
<path id="path4141" sodipodi:nodetypes="sssssss" inkscape:connector-curvature="0" fill="#1A1A1A" stroke="#000000" d="
	M518.973,38.368c-4.424,0.951-9.062,5.187-9.508,9.69c-0.361,3.658,2.718,7.645,6.033,9.232c3.066,1.469,7.431,1.037,10.147-1.005
	c1.968-1.479,2.794-4.396,2.743-6.856c-0.068-3.273-1.65-6.703-4.022-8.959C522.968,39.141,520.859,37.963,518.973,38.368z"/>
<path id="path4143" sodipodi:nodetypes="csssssssc" inkscape:connector-curvature="0" fill="#1A1A1A" stroke="#000000" d="
	M535.224,18.896c-2.7-5.823-19.758-15.526-26.133-16.273c-6.091-0.714-4.492,12.186-4.857,12.16
	c-0.502-0.036-5.262,10.792-2.376,16.455c2.379,4.671,7.861,7.377,12.798,9.142c3.911,1.398,8.475,2.081,12.433,0.823
	c3.365-1.069,6.718-3.481,8.228-6.673C537.543,29.818,537.416,23.624,535.224,18.896L535.224,18.896z"/>
<path id="path4145" sodipodi:nodetypes="csscc" inkscape:connector-curvature="0" fill="#4D4D4D" stroke="#000000" stroke-width="0.8665" d="
	M534.894,58.528c-0.534,0.601-1.372,13.005,0.665,10.81c4.754-5.123,21.493-13.113,20.195-15.93
	c-5.095-11.062-11.404-2.949-15.092,1.264L534.894,58.528z"/>
<path id="path4147" sodipodi:nodetypes="sssss" inkscape:connector-curvature="0" fill="#ECECEC" stroke="#000000" d="
	M534.34,56.701c-1.037,0.793-0.681,3.888,0.695,2.615c1.436-1.326,5.643-2.348,6.339-3.355c1.268-1.834-1.103-1.785-1.23-2.194
	C539.44,51.52,534.6,56.503,534.34,56.701z"/>
<path id="path4149" sodipodi:nodetypes="ssssssss" inkscape:connector-curvature="0" fill="#FFFFFF" stroke="#000000" stroke-linecap="round" stroke-linejoin="round" d="
	M496.209,39.962c-1.68,1.683-0.99,5.014,0.091,7.13c0.604,1.184,1.935,1.971,3.2,2.377c1.74,0.561,3.873,0.772,5.484-0.091
	c0.946-0.507,1.487-1.634,1.829-2.651c0.446-1.33,0.703-2.902,0.183-4.205c-0.439-1.101-1.463-2.019-2.56-2.468
	C501.898,39.013,498.146,38.021,496.209,39.962L496.209,39.962z"/>
<path id="path4151" sodipodi:nodetypes="sssssssss" inkscape:connector-curvature="0" fill="#FFFFFF" stroke="#000000" d="
	M523.34,22.37c-1.016,0.491-1.749,1.581-2.103,2.651c-0.593,1.795-0.617,3.955,0.183,5.668c0.484,1.036,1.504,1.846,2.56,2.285
	c1.917,0.796,4.372,1.318,6.217,0.366c1.021-0.528,1.565-1.806,1.828-2.925c0.427-1.818,0.435-3.988-0.549-5.576
	c-0.813-1.316-2.444-2.041-3.931-2.469C526.198,21.982,524.602,21.761,523.34,22.37L523.34,22.37z"/>
<path id="path4153" sodipodi:nodetypes="cssssssssc" inkscape:connector-curvature="0" fill="#FFFFFF" stroke="#000000" stroke-width="0.8" d="
	M535.075,23.333c0.196,0.368,0.338,1.185,0.406,1.989c0.114,1.346,0.119,2.966-0.035,4.251c-0.094,0.777-0.29,1.385-0.495,1.714
	c-0.37,0.597-0.844,0.989-1.2,0.274c-0.197-0.396-0.303-1.354-0.354-2.194c-0.082-1.364-0.084-2.992,0.106-4.183
	c0.157-0.987,0.472-1.53,0.759-1.852C534.523,23.042,534.832,22.876,535.075,23.333L535.075,23.333z"/>
<path id="path4155" sodipodi:nodetypes="cccccccc" inkscape:connector-curvature="0" fill="#1A1A1A" stroke="#000000" d="
	M600.477,56.264l-5.574,6.016c-7.309,1.798-11.051-1.686-14.223-6.016l1.625-3.334l3.174,0.391l7.57,4.38l5.686-4.323
	L600.477,56.264z"/>
<path id="path4157" sodipodi:nodetypes="ccscscc" inkscape:connector-curvature="0" fill="#4D4D4D" stroke="#000000" stroke-width="0.8665" d="
	M581.315,61.507c0.413-0.688-0.353-8.59-2.66-10.499c-2.946-0.434-16.944,14.809-16.931,16.591c0.033,4.755-0.326,5.93-0.137,7.036
	c1.034,1.289,4.552,1.105,5.422,0.38c8.539-7.113,6.898-4.478,9.354-8.647L581.315,61.507z"/>
<path id="path4159" sodipodi:nodetypes="cssssc" inkscape:connector-curvature="0" fill="#ECECEC" stroke="#000000" d="
	M583.299,52.428c-0.349-1.258-3.876-0.803-3.209,0.949c0.695,1.826,0.189,8.147,0.863,9.169c1.229,1.86,2.068-0.356,2.496-0.322
	c2.346,0.186-0.267-5.96-0.267-5.96L583.299,52.428z"/>
<path id="path4161" sodipodi:nodetypes="ssssssss" inkscape:connector-curvature="0" fill="#CCCCCC" stroke="#000000" stroke-linecap="round" stroke-linejoin="round" d="
	M609.224,43.381c-1.68,1.682-0.99,5.014,0.091,7.13c0.604,1.183,1.936,1.97,3.2,2.377c1.74,0.56,3.873,0.772,5.484-0.091
	c0.946-0.508,1.487-1.634,1.829-2.652c0.445-1.33,0.703-2.901,0.183-4.205c-0.44-1.1-1.463-2.018-2.56-2.468
	C614.913,42.432,611.161,41.439,609.224,43.381z"/>
<path id="path4163" sodipodi:nodetypes="ccccc" inkscape:connector-curvature="0" fill="#1A1A1A" stroke="#000000" d="
	M605.538,53.854c8.667,0.522,10.851,8.092,13.303,12.905l-3.485,3.393c-2.688-4.908-5.172-12.244-12.176-13.889L605.538,53.854z"/>
<path id="path4165" sodipodi:nodetypes="sssssss" inkscape:connector-curvature="0" fill="#1A1A1A" stroke="#000000" d="
	M598.973,38.368c-4.424,0.951-9.062,5.187-9.508,9.69c-0.361,3.658,2.718,7.645,6.033,9.232c3.066,1.469,7.431,1.037,10.147-1.005
	c1.968-1.479,2.794-4.396,2.743-6.856c-0.068-3.273-1.65-6.703-4.022-8.959C602.968,39.141,600.859,37.963,598.973,38.368z"/>
<path id="path4167" sodipodi:nodetypes="csssssssc" inkscape:connector-curvature="0" fill="#1A1A1A" stroke="#000000" d="
	M615.224,18.896c-2.7-5.823-19.758-15.526-26.133-16.273c-6.091-0.714-4.492,12.186-4.857,12.16
	c-0.502-0.036-5.262,10.792-2.376,16.455c2.379,4.671,7.861,7.377,12.798,9.142c3.911,1.398,8.475,2.081,12.433,0.823
	c3.365-1.069,6.718-3.481,8.228-6.673C617.543,29.818,617.416,23.624,615.224,18.896L615.224,18.896z"/>
<path id="path4169" sodipodi:nodetypes="ccsscc" inkscape:connector-curvature="0" fill="#4D4D4D" stroke="#000000" stroke-width="0.8665" d="
	M615.09,70.225c-1.493,3.872-3.502,2.664-1.662,7.118c2.006,0.373,5.145,1.659,6.453,0.713c7.061-5.103,16.129-12.117,15.572-14.667
	c-2.602-11.897-11.611-1.991-14.935,2.514L615.09,70.225z"/>
<path id="path4171" sodipodi:nodetypes="cssssc" inkscape:connector-curvature="0" fill="#ECECEC" stroke="#000000" d="
	M612.381,68.801c-0.805,1.027,1.881,3.111,2.894,1.534c1.056-1.645,4.872-3.69,5.293-4.839c0.767-2.094-1.515-1.453-1.741-1.816
	c-1.245-1.998-7.072,2.998-6.98,3.311L612.381,68.801z"/>
<path id="path4173" sodipodi:nodetypes="ssssssss" inkscape:connector-curvature="0" fill="#FFFFFF" stroke="#000000" stroke-linecap="round" stroke-linejoin="round" d="
	M582.062,40.09c-1.68,1.682-0.99,5.014,0.091,7.131c0.604,1.183,1.935,1.97,3.199,2.377c1.741,0.56,3.874,0.771,5.485-0.092
	c0.946-0.507,1.487-1.633,1.828-2.651c0.446-1.33,0.704-2.901,0.183-4.205c-0.439-1.101-1.463-2.019-2.559-2.468
	C587.751,39.141,583.999,38.149,582.062,40.09L582.062,40.09z"/>
<path id="path4175" sodipodi:nodetypes="sssssssss" inkscape:connector-curvature="0" fill="#FFFFFF" stroke="#000000" d="
	M603.34,22.37c-1.016,0.491-1.749,1.581-2.103,2.651c-0.593,1.795-0.617,3.955,0.183,5.668c0.484,1.036,1.504,1.846,2.56,2.285
	c1.917,0.796,4.372,1.318,6.217,0.366c1.021-0.528,1.565-1.806,1.828-2.925c0.427-1.818,0.435-3.988-0.549-5.576
	c-0.813-1.316-2.444-2.041-3.931-2.469C606.198,21.982,604.602,21.761,603.34,22.37L603.34,22.37z"/>
<path id="path4177" sodipodi:nodetypes="cssssssssc" inkscape:connector-curvature="0" fill="#FFFFFF" stroke="#000000" stroke-width="0.8" d="
	M615.075,23.333c0.196,0.368,0.338,1.185,0.406,1.989c0.114,1.346,0.119,2.966-0.035,4.251c-0.094,0.777-0.29,1.385-0.495,1.714
	c-0.37,0.597-0.844,0.989-1.2,0.274c-0.197-0.396-0.303-1.354-0.354-2.194c-0.082-1.364-0.084-2.992,0.106-4.183
	c0.157-0.987,0.472-1.53,0.759-1.852C614.523,23.042,614.832,22.876,615.075,23.333L615.075,23.333z"/>
<path id="path4117_1_" sodipodi:nodetypes="sssssss" inkscape:connector-curvature="0" fill="#1A1A1A" stroke="#000000" d="
	M752.14,49.305c-4.425,0.95-9.062,5.187-9.508,9.69c-0.361,3.658,2.718,7.645,6.033,9.232c3.066,1.469,7.431,1.037,10.147-1.005
	c1.968-1.479,2.794-4.396,2.743-6.856c-0.068-3.273-1.65-6.703-4.022-8.959C756.135,50.077,754.026,48.899,752.14,49.305z"/>
<path id="path4119_1_" sodipodi:nodetypes="csssssssc" inkscape:connector-curvature="0" fill="#1A1A1A" stroke="#000000" d="
	M784.136,57.864c3.648-5.281,3.357-24.904,0.769-30.777c-2.475-5.611-12.78,2.311-12.943,1.982c-0.224-0.451-11.97,0.939-15.386,6.3
	c-2.819,4.419-2.37,10.517-1.386,15.666c0.779,4.079,2.505,8.358,5.597,11.13c2.629,2.359,6.408,4.025,9.925,3.707
	C775.9,65.401,781.175,62.149,784.136,57.864z"/>
<path id="path4121_1_" sodipodi:nodetypes="csscc" inkscape:connector-curvature="0" fill="#4D4D4D" stroke="#000000" stroke-width="0.8665" d="
	M747.415,67.63c-0.794,0.125-9.282,8.209-6.342,8.778c6.448,1.252,24.901,2.362,25.718,0.492c4.231-9.681-11.238-8.691-12.471-8.595
	L747.415,67.63z"/>
<path id="path4123_1_" sodipodi:nodetypes="sssss" inkscape:connector-curvature="0" fill="#ECECEC" stroke="#000000" d="
	M747.977,64.847c-1.296,0.153-2.566,2.998-0.733,2.605c1.91-0.411,6.052,0.854,7.163,0.343c2.026-0.932-0.037-2.099,0.062-2.516
	C755.006,62.987,748.302,64.808,747.977,64.847z"/>
<path id="path4125_1_" sodipodi:nodetypes="ssssssss" inkscape:connector-curvature="0" fill="#FFFFFF" stroke="#000000" stroke-linecap="round" stroke-linejoin="round" d="
	M753.445,58.216c-1.68,1.682-0.99,5.014,0.091,7.131c0.604,1.183,1.935,1.97,3.2,2.377c1.74,0.559,3.873,0.771,5.484-0.092
	c0.946-0.508,1.487-1.634,1.828-2.651c0.446-1.33,0.704-2.902,0.184-4.205c-0.44-1.101-1.463-2.019-2.561-2.468
	C759.135,57.267,755.383,56.274,753.445,58.216L753.445,58.216z"/>
<path id="path4127_1_" sodipodi:nodetypes="sssssssss" inkscape:connector-curvature="0" fill="#FFFFFF" stroke="#000000" d="
	M775.114,49.384c-0.938-0.626-2.249-0.705-3.352-0.466c-1.848,0.398-3.721,1.474-4.793,3.031c-0.646,0.943-0.827,2.233-0.67,3.366
	c0.287,2.055,1.082,4.436,2.839,5.543c0.973,0.611,2.35,0.432,3.448,0.09c1.783-0.553,3.657-1.648,4.526-3.301
	c0.722-1.369,0.52-3.142,0.135-4.639C776.898,51.65,776.279,50.162,775.114,49.384z"/>
<path id="path4129_1_" sodipodi:nodetypes="cssssssssc" inkscape:connector-curvature="0" fill="#FFFFFF" stroke="#000000" stroke-width="0.8" d="
	M780.237,59.985c-0.218,0.355-0.851,0.895-1.508,1.359c-1.102,0.781-2.496,1.607-3.682,2.125c-0.718,0.314-1.341,0.453-1.728,0.443
	c-0.704-0.016-1.281-0.225-0.846-0.895c0.241-0.371,1.013-0.949,1.711-1.416c1.134-0.764,2.536-1.592,3.659-2.031
	c0.93-0.365,1.558-0.369,1.98-0.285C780.208,59.362,780.508,59.546,780.237,59.985z"/>
</svg>
